<svg width="24" height="24" viewBox="0 0 24 24" fill="none" xmlns="http://www.w3.org/2000/svg">
  <path d="M12 24C5.38125 24 0 18.6187 0 12C0 5.38125 5.38125 0 12 0C18.6187 0 24 5.38125 24 12C24 18.6187 18.6187 24 12 24Z" fill="#F9A036" fill-opacity="0.2"/>
  <path d="M17.5129 12.9936C17.4191 12.3374 17.1004 11.8311 16.5191 11.4936C16.2566 11.3436 15.9566 11.2499 15.6754 11.1186C15.7129 11.0999 15.7316 11.0624 15.7504 11.0624C17.1941 10.3311 17.0629 8.0811 16.0129 7.3311C15.5816 7.0311 15.1129 6.82485 14.6066 6.71235C14.2504 6.63735 13.8941 6.5811 13.5191 6.5061C13.5191 5.8686 13.5379 4.9686 13.5379 4.2561H12.1879C12.1879 4.94985 12.1691 5.8311 12.1691 6.4686C11.7941 6.4686 11.4379 6.4686 11.0816 6.4686C11.0816 5.8311 11.0816 4.9686 11.1004 4.2561H9.75039C9.75039 4.9686 9.73164 5.8686 9.73164 6.5061C8.81289 6.5061 7.91289 6.48735 6.99414 6.48735C6.99414 6.97485 6.99414 7.4436 6.97539 7.9311C7.18164 7.9311 7.35039 7.9311 7.51914 7.9311C7.68789 7.9311 7.85664 7.9311 8.02539 7.94985C8.49414 7.98735 8.73789 8.24985 8.73789 8.7186C8.71914 10.6499 8.70039 12.5811 8.68164 14.5124C8.68164 14.9436 8.49414 15.1124 8.08164 15.1124C7.78164 15.1124 7.48164 15.1124 7.18164 15.1124C7.08789 15.6561 6.99414 16.1811 6.90039 16.7249C7.81914 16.7436 8.71914 16.7436 9.63789 16.7624C9.63789 17.4561 9.63789 18.3374 9.61914 19.0686H10.9691C10.9691 18.3374 10.9879 17.4749 10.9879 16.7999C11.3629 16.8186 11.7191 16.8186 12.0754 16.8374C12.0754 17.5311 12.0754 18.3749 12.0566 19.0686H13.4066C13.4066 18.3374 13.4254 17.4936 13.4254 16.8186C13.4816 16.8186 13.5004 16.7999 13.5379 16.7999C14.1754 16.7061 14.8316 16.6311 15.4691 16.4811C16.2941 16.2749 16.9316 15.8061 17.2691 14.9999C17.5504 14.3249 17.6066 13.6686 17.5129 12.9936ZM11.1004 8.0436C11.9441 8.0436 12.7504 7.98735 13.5379 8.32485C14.0441 8.54985 14.2879 8.96235 14.2691 9.4686C14.2316 9.9936 13.9316 10.3874 13.3879 10.5561C12.6379 10.7999 11.8691 10.7811 11.0816 10.7624C11.0816 9.86235 11.0816 8.9811 11.1004 8.0436ZM14.0441 14.7936C13.2941 15.1311 12.5066 15.1311 11.7191 15.1311C11.4941 15.1311 11.2879 15.1124 11.0441 15.1124C11.0629 14.0999 11.0629 13.1249 11.0816 12.1311C12.1129 12.1311 13.1254 12.0561 14.0816 12.4874C14.5879 12.7124 14.8691 13.0874 14.8691 13.6499C14.8504 14.2124 14.5316 14.5686 14.0441 14.7936Z" fill="#F9A036"/>
</svg>
