<svg width="216" height="100" fill="none" xmlns="http://www.w3.org/2000/svg"><g clip-path="url(#clip0)"><g opacity=".5" filter="url(#filter0_f)"><ellipse rx="3.891" ry="3.88" transform="matrix(-1 0 0 1 -1.77 54.325)" fill="#48A6EB"/></g><g opacity=".3" filter="url(#filter1_f)"><ellipse rx="2.223" ry="2.217" transform="matrix(-1 0 0 1 75.488 51.554)" fill="#48A6EB"/></g><g opacity=".3" filter="url(#filter2_f)"><ellipse rx="2.223" ry="2.217" transform="matrix(-1 0 0 1 217.777 64.855)" fill="#48A6EB"/></g><g opacity=".5" filter="url(#filter3_f)"><ellipse rx="2.223" ry="2.217" transform="matrix(-1 0 0 1 26.577 18.301)" fill="#48A6EB"/></g><g opacity=".5" filter="url(#filter4_f)"><ellipse rx="2.223" ry="2.217" transform="matrix(-1 0 0 1 16.572 94.783)" fill="#48A6EB"/></g><g opacity=".5" filter="url(#filter5_f)"><ellipse rx="1.112" ry="1.108" transform="matrix(-1 0 0 1 127.735 95.892)" fill="#48A6EB"/></g><g opacity=".2" filter="url(#filter6_f)"><ellipse rx="3.335" ry="3.325" transform="matrix(-1 0 0 1 175.535 8.325)" fill="#48A6EB"/></g><path fill-rule="evenodd" clip-rule="evenodd" d="M98.367 19.098a1 1 0 001.105-1.309L95.157 5.06a1 1 0 00-1.718-.316l-8.78 10.635a1 1 0 00.614 1.624l2.067.33-2.641 14.451L71.855 28.1c-1.23-.354-2.588-.174-3.722.493-1.14.669-1.943 1.766-2.198 3.006l-16.26 53.007c-.533 2.594 1.161 4.877 3.77 5.084 1.18.094 2.337-.252 3.297-.9 1.153-.776 2.015-1.984 2.286-3.382l14.82-47.68 12.885 3.557c1.192.33 2.49.125 3.557-.559a4.465 4.465 0 001.999-2.98l3.297-19.093 2.78.445z" fill="url(#paint0_linear)" fill-opacity=".3"/><path d="M36.2 70.628a8 8 0 016.942-8.401l81.423-10.718a4 4 0 011.787.171l13.015 4.339-88.43 11.345a6 6 0 00-5.224 6.345l4.433 67.398-8.453-5.363a3.999 3.999 0 01-1.85-3.143L36.2 70.628z" fill="url(#paint1_linear)"/><path d="M39.907 72.633a8 8 0 016.89-8.444l82.576-11.395.944.58-83.56 12.306a6 6 0 00-5.116 6.288l3.917 66.639-1.392-.464-4.26-65.51z" fill="url(#paint2_linear)"/><path d="M51.3 67.21l85.975-11.346a3.5 3.5 0 013.952 3.265l3.78 64.296a4.5 4.5 0 01-3.795 4.71L52.877 141.99a2.5 2.5 0 01-2.882-2.305l-4.33-65.602A6.5 6.5 0 0151.3 67.21z" fill="url(#paint3_linear)" stroke="#445379"/><path d="M74.284 50.538a1 1 0 01.87-1.061l21.252-2.759a1 1 0 01.982.47l.811 1.325-.501 9.044-2 .048-.348-7.67a1 1 0 00-1.118-.948l-8.363 1.002-8.498 1.02a1 1 0 00-.88 1.05l.482 8.285-1.986.239-.703-10.045z" fill="#1F212D"/><path d="M75.31 51.512a1 1 0 01.865-1.063l20.912-2.797a1 1 0 011.13.94l.493 9.44-2 .049-.258-7.262a1 1 0 00-1.118-.957l-8.353 1.001-8.612 1.32a1 1 0 00-.847 1.05l.476 7.776-1.986.238-.702-9.735z" fill="#2B2B3C"/><g filter="url(#filter7_f)" stroke-width="4" stroke-linecap="round" stroke-linejoin="round"><path d="M27.945 55.219L21.059 31.74M42.032 51.087L31.015 13.523M13.858 59.35l-2.754-9.39" stroke="#2B2B3C"/><path d="M30.894 57.038L24.008 33.56M44.98 52.906L33.965 15.342M16.807 61.17l-2.754-9.392" stroke="#ACB4CC"/></g><g clip-path="url(#clip1)"><path d="M123.76 44.662a.996.996 0 00.331.055l1.069-.007c.305-.002.592-.141.787-.376.885-1.066 3.543-4.104 5.761-4.968.472-.183.863-.6.871-1.105l.225-12.943a.972.972 0 00-1.003-1c-9.863.391-18.534 5.921-22.886 14.069-.282.527-.011 1.172.555 1.366l14.29 4.91zM145.395 51.322c-.493-.012-.916.339-1.044.815-1.202 4.474-5.406 7.887-10.493 8.05-1.009.032-2.142-.422-2.631-.643a1.146 1.146 0 00-.519-.105c-.159.007-.368.014-.577.017-.477.006-1.001.243-1.258.644l-7.363 11.5c-.328.513-.127 1.199.438 1.427a27.379 27.379 0 0011.905 1.931c13.064-.759 23.42-10.414 25.087-22.24a.967.967 0 00-.947-1.092l-12.598-.304zM118.037 71.047c.145.089.31.137.479.143l.795.027a1 1 0 00.924-.542l6.14-11.94c.224-.433.097-.962-.27-1.284-2.163-1.897-3.52-4.623-3.52-7.677 0-.507.039-1.008.112-1.5.074-.496-.184-.994-.653-1.172l-12.89-4.908a1.005 1.005 0 00-.369-.065l-.788.01a.975.975 0 00-.925.682A24.381 24.381 0 00106 49.98c0 8.937 4.811 16.645 12.037 21.068zM135.529 38.336c-.009.502.357.925.845 1.038 4.194.965 7.411 4.224 8.161 8.293.092.496.501.886 1.006.9l22.864.667a.015.015 0 00.016-.016v-.015c0-.011 1.681-.28 2.741-.449.486-.077.627-.387.295-.75-3.973-4.332-28.273-30.114-31.55-33.59a1 1 0 00-.891-.3l-2.993.497c-.054.009-.082.032-.083.087-.024 1.155-.274 15.552-.411 23.638z" fill="#303142"/><path d="M124.837 44.448c.456.156.954-.037 1.223-.436 1.641-2.431 4.276-4.183 7.329-4.74.498-.09.884-.505.892-1.01l.225-12.944a.972.972 0 00-1.003-1c-9.863.391-18.535 5.921-22.886 14.069-.282.527-.011 1.172.555 1.366l13.665 4.695zM147.097 51.322c-.493-.012-.916.339-1.044.815-1.202 4.474-5.406 7.887-10.493 8.05a11.449 11.449 0 01-3.769-.506c-.456-.141-.959.018-1.216.42l-7.363 11.5c-.328.512-.127 1.197.438 1.426a27.38 27.38 0 0011.905 1.931c13.064-.759 23.42-10.414 25.087-22.24a.966.966 0 00-.947-1.092l-12.598-.304zM119.139 70.669a.972.972 0 001.345-.301l7.475-11.6c.284-.442.175-1.025-.217-1.374-2.126-1.895-3.455-4.597-3.455-7.62 0-.495.037-.985.107-1.466.075-.51-.202-1.02-.691-1.186l-13.764-4.654a.97.97 0 00-1.249.634 24.391 24.391 0 00-.988 6.877c0 8.687 4.546 16.213 11.437 20.69z" fill="#434359"/><path d="M148.606 46.946c-.789-4.27-4.164-7.68-8.54-8.685-.282-.064-.462-.301-.458-.543l.394-22.62a.48.48 0 01.538-.474c17.642 2.344 30.71 16.7 30.956 33.466l-22.362-.652c-.243-.007-.474-.2-.528-.492z" fill="#5D8EB3" stroke="#3D78A4"/><path opacity=".3" d="M132.311 59.825a11.735 11.735 0 01-1.294-.42l-8.427 13.161c3.915 1.784 8.339 2.66 12.965 2.387a27.628 27.628 0 0010.407-2.68c-3.182-.489-6.028-1.705-8.298-3.735-2.578-2.314-4.254-5.53-5.353-8.713zM129.485 30.193c-1-1.862-2.429-3.273-4.038-4.349-6.75 2.345-12.315 7.229-15.337 13.544l15.513 5.33a11.106 11.106 0 014.734-4.443c.407-3.95.866-6.856-.872-10.082z" fill="#fff" fill-opacity=".1"/></g><g opacity=".15" clip-path="url(#clip2)" filter="url(#filter8_f)"><path d="M23.811 101.161l-2-.803.559-1.127 2 .804-.559 1.126zM24.37 100.034l-2-.803c.288-.597.374-1.15.251-1.666-.123-.515-.433-.895-.926-1.15-.064-.027-.114-.059-.182-.077l2 .803.181.078c.493.254.803.634.927 1.15.123.514.036 1.069-.252 1.665zM18.532 97.05l-2-.804c.442-.907 1.008-1.6 1.692-2.092l2 .803c-.684.492-1.25 1.185-1.692 2.092z" fill="#185739"/><path d="M20.22 94.967l-2-.803c.323-.228.68-.408 1.053-.55a4.63 4.63 0 01.526-.15l2 .803a4.24 4.24 0 00-1.58.7z" fill="#185739"/><path d="M21.799 94.267l-2-.803c.857-.192 1.725-.11 2.614.25l1.999.802c-.88-.355-1.757-.44-2.613-.249zM17.994 98.152l-2.008-.807.546-1.099 2 .803-.538 1.103z" fill="#185739"/><path d="M20.516 105.038l-2-.803c-.163-.07-.336-.144-.505-.227-1.269-.651-2.094-1.586-2.457-2.795-.373-1.213-.219-2.502.45-3.86l2 .803c-.669 1.358-.81 2.642-.45 3.86.372 1.213 1.188 2.144 2.457 2.795.169.083.332.153.505.227zM20.535 84.244l-2-.803.538-1.103 2.009.806-.547 1.1z" fill="#185739"/><path d="M21.081 83.144l-2-.803c.289-.597.385-1.147.274-1.667-.114-.512-.43-.905-.94-1.167-.055-.023-.114-.06-.173-.074l1.99.8.173.073c.511.263.827.656.94 1.167.111.52.024 1.074-.264 1.671zM18.109 85.515l-2-.803c.322.127.63.162.94.09l2 .804a1.57 1.57 0 01-.94-.09z" fill="#185739"/><path d="M19.049 85.606l-2-.803c.118-.025.222-.066.339-.113.107-.05.206-.105.303-.182l2 .803a1.914 1.914 0 01-.304.182c-.117.047-.23.084-.338.113z" fill="#185739"/><path d="M19.69 85.311l-1.999-.803c.336-.232.62-.594.858-1.073l2 .803c-.238.48-.531.837-.858 1.073z" fill="#185739"/><path fill-rule="evenodd" clip-rule="evenodd" d="M11.135 96.47L28.85 84.388l-2.009-.807L9.136 95.668l1.313 2.078 2.008.807-1.322-2.082z" fill="#185739"/><path d="M15.253 80.163l-2-.803c.442-.907 1.012-1.61 1.705-2.097l2 .803c-.684.492-1.254 1.194-1.705 2.097z" fill="#185739"/><path d="M16.958 78.066l-2-.803a4.286 4.286 0 011.026-.539c.191-.068.374-.12.566-.166l2 .803a3.972 3.972 0 00-.566.166c-.36.137-.707.32-1.026.539z" fill="#185739"/><path d="M18.55 77.361l-2-.803c.843-.187 1.702-.109 2.582.247l2 .803c-.88-.356-1.74-.434-2.583-.247zM14.735 81.22l-2-.803.518-1.057 2 .803-.518 1.058z" fill="#185739"/><path d="M17.227 88.126l-2-.803c-.163-.07-.327-.14-.495-.223-1.251-.644-2.071-1.565-2.444-2.778-.381-1.217-.232-2.519.448-3.905l2 .803c-.68 1.386-.83 2.688-.457 3.9.372 1.214 1.188 2.144 2.443 2.779.169.083.337.166.505.227z" fill="#185739"/><path fill-rule="evenodd" clip-rule="evenodd" d="M16.722 87.899c1.255.634 2.456.74 3.623.326 1.166-.413 2.08-1.29 2.735-2.644l.521-1.067c.684-1.395.842-2.692.47-3.905-.377-1.204-1.193-2.135-2.453-2.782-1.241-.64-2.456-.74-3.63-.309-1.175.432-2.083 1.323-2.735 2.645l-.518 1.057c-.68 1.386-.83 2.688-.457 3.9.373 1.214 1.193 2.135 2.444 2.779zm1.205-2.462c-.493-.254-.803-.634-.936-1.153-.119-.525-.045-1.073.247-1.68l.53-1.084c.316-.638.715-1.07 1.19-1.274.475-.205.963-.19 1.447.06.511.263.827.656.941 1.167.11.52.014 1.07-.274 1.667l-.537 1.103c-.305.612-.688 1.028-1.157 1.246-.47.218-.958.203-1.45-.052zm10.922-1.05l1.313 2.079-17.705 12.087-1.322-2.082L28.85 84.387zm-1.494 13.12c.376 1.205.223 2.515-.468 3.929l-.522 1.066c-.653 1.322-1.557 2.203-2.718 2.63-1.162.427-2.372.317-3.636-.321-1.269-.651-2.094-1.586-2.458-2.795-.372-1.213-.218-2.502.45-3.86l.538-1.103c.656-1.331 1.573-2.218 2.753-2.637 1.18-.42 2.39-.309 3.626.318 1.238.648 2.058 1.57 2.435 2.774zm-3.544 3.654l.55-1.131c.287-.597.374-1.15.25-1.666-.123-.515-.433-.895-.926-1.15-.493-.254-.977-.278-1.456-.064-.474.205-.87.627-1.179 1.247l-.541 1.112c-.265.542-.339 1.091-.209 1.641.13.551.432.949.911 1.186 1.082.561 1.953.16 2.6-1.175z" fill="#2DA36A"/></g><g opacity=".15" clip-path="url(#clip3)" filter="url(#filter9_f)"><path d="M124.784 12.336l-.97.69-.357-.596.97-.69.357.596zM124.671 13.824l-.97.69a.887.887 0 00.34-.422l.971-.69a.93.93 0 01-.341.422zM125.012 13.402l-.971.69a.724.724 0 00.045-.314l.971-.69a.817.817 0 01-.045.314z" fill="#185739"/><path d="M125.056 13.088l-.97.69c-.012-.222-.102-.471-.272-.752l.97-.69c.171.28.26.53.272.752zM124.427 11.74l-.971.69c-.191-.312-.423-.518-.699-.614a.937.937 0 00-.812.088c-.031.021-.061.035-.09.061l.97-.69.091-.062a.935.935 0 01.811-.087c.277.096.508.302.7.614zM121.296 13.564l-.97.69c-.29-.476-.444-.946-.468-1.411l.97-.69c.025.464.178.934.468 1.411z" fill="#185739"/><path d="M120.831 12.157l-.97.69a2.617 2.617 0 01.059-.653c.023-.102.053-.194.087-.29l.97-.69a2.37 2.37 0 00-.146.943z" fill="#185739"/><path d="M120.977 11.214l-.97.69c.166-.455.463-.835.896-1.14l.97-.691a2.398 2.398 0 00-.896 1.14zM121.648 14.143l-.974.694-.349-.583.971-.69.352.58z" fill="#185739"/><path d="M125.604 15.026l-.971.69a5.618 5.618 0 01-.256.167c-.682.396-1.362.501-2.033.31-.676-.19-1.229-.646-1.662-1.363l.971-.69c.432.716.987 1.165 1.661 1.362.675.189 1.352.087 2.034-.309.089-.054.17-.109.256-.167zM115.938 8.81l-.97.69-.353-.58.975-.693.348.582zM115.59 8.227l-.971.69c-.192-.312-.419-.52-.694-.624-.272-.1-.549-.07-.823.089-.027.018-.062.035-.086.058l.966-.687.086-.058c.274-.16.551-.19.823-.09.275.104.507.31.699.622zM115.805 10.318l-.97.69a.853.853 0 00.322-.41l.971-.69a.87.87 0 01-.323.41zM116.128 9.908l-.971.69c.024-.062.036-.123.049-.191a.796.796 0 00.006-.196l.971-.69c.003.064.002.13-.007.195a1.616 1.616 0 01-.048.192z" fill="#185739"/><path d="M116.183 9.521l-.971.69c-.008-.225-.091-.466-.243-.719l.97-.69c.152.253.231.496.244.719z" fill="#185739"/><path fill-rule="evenodd" clip-rule="evenodd" d="M118.819 16.832l-.333-11.846-.975.693.338 11.843h-.001l1.359.01.975-.694-1.363-.006z" fill="#185739"/><path d="M112.463 10.048l-.97.69c-.29-.476-.447-.95-.467-1.418l.971-.69c.024.464.181.939.466 1.418z" fill="#185739"/><path d="M111.997 8.63l-.971.69a2.393 2.393 0 01.148-.951l.97-.69a2.042 2.042 0 00-.091.312 2.728 2.728 0 00-.056.639z" fill="#185739"/><path d="M112.144 7.679l-.97.69c.165-.448.457-.824.885-1.127l.971-.69c-.428.302-.721.679-.886 1.127zM112.8 10.605l-.97.69-.337-.556.97-.69.337.556z" fill="#185739"/><path d="M116.756 11.507l-.97.69c-.082.056-.163.11-.252.164-.673.39-1.346.497-2.022.308-.68-.186-1.24-.644-1.682-1.374l.97-.69c.442.73 1.003 1.188 1.678 1.376.676.19 1.352.087 2.022-.307.089-.053.178-.107.256-.167z" fill="#185739"/><path fill-rule="evenodd" clip-rule="evenodd" d="M116.5 11.674c.669-.394 1.077-.921 1.233-1.587.156-.666.02-1.353-.413-2.062l-.341-.56c-.444-.735-1.001-1.196-1.676-1.385-.673-.184-1.349-.082-2.026.31-.668.387-1.078.922-1.228 1.597-.149.675-.006 1.363.414 2.061l.337.557c.442.73 1.003 1.188 1.678 1.377.676.188 1.349.082 2.022-.308zm-.785-1.295a.956.956 0 01-.816.09c-.28-.1-.513-.298-.708-.615l-.346-.57c-.203-.338-.284-.652-.237-.935a.895.895 0 01.46-.654c.275-.16.552-.19.823-.09.275.104.503.313.694.625l.353.58c.193.324.273.626.234.91a.874.874 0 01-.457.659zm2.771-5.393l1.359.01.337 11.842-1.363-.006-.333-11.846zm5.657 4.611c.673.185 1.236.647 1.687 1.39l.341.561c.42.699.56 1.382.412 2.05-.148.667-.561 1.198-1.235 1.595-.682.396-1.363.5-2.034.309-.675-.19-1.229-.646-1.661-1.362l-.353-.579c-.423-.703-.561-1.394-.404-2.068.157-.673.57-1.204 1.23-1.592.671-.382 1.345-.488 2.017-.304zm.641 2.739l-.361-.593c-.192-.312-.424-.518-.7-.614a.938.938 0 00-.812.087c-.265.154-.421.372-.464.658-.047.282.031.592.228.921l.355.584c.174.285.407.483.701.587a.93.93 0 00.824-.07c.584-.336.657-.86.229-1.56z" fill="#2DA36A"/></g><g opacity=".15" clip-path="url(#clip4)" filter="url(#filter10_f)"><path d="M160.051 85.101l-.662.47-.242-.402.662-.471.242.403zM159.97 86.112l-.662.47a.61.61 0 00.233-.287l.662-.47a.637.637 0 01-.233.287zM160.203 85.824l-.662.47a.5.5 0 00.031-.212l.662-.47a.564.564 0 01-.031.212z" fill="#185739"/><path d="M160.234 85.611l-.662.47c-.008-.15-.068-.32-.183-.509l.662-.47c.115.19.175.358.183.51zM159.809 84.698l-.662.47c-.13-.21-.287-.35-.475-.415a.64.64 0 00-.552.062c-.021.014-.042.024-.062.042l.662-.471.062-.042a.64.64 0 01.552-.061c.188.064.345.204.475.415zM157.674 85.943l-.662.47a2.032 2.032 0 01-.315-.956l.662-.47c.016.315.119.633.315.956z" fill="#185739"/><path d="M157.361 84.99l-.662.47a1.844 1.844 0 01.042-.443 1.8 1.8 0 01.06-.197l.662-.471a1.599 1.599 0 00-.102.64z" fill="#185739"/><path d="M157.463 84.349l-.662.47a1.63 1.63 0 01.612-.776l.662-.47a1.639 1.639 0 00-.612.776zM157.913 86.335l-.665.473-.236-.394.662-.471.239.392zM160.602 86.925l-.662.47a3.609 3.609 0 01-.175.114c-.464.27-.928.343-1.384.215-.459-.127-.835-.435-1.127-.92l.662-.471c.292.485.669.788 1.127.92.459.127.919.056 1.384-.214.061-.037.116-.075.175-.114zM154.04 82.73l-.662.47-.239-.392.665-.473.236.394z" fill="#185739"/><path d="M153.804 82.335l-.662.47c-.129-.21-.284-.352-.47-.422a.64.64 0 00-.561.063c-.018.013-.042.024-.058.04l.658-.469a.639.639 0 01.619-.102c.187.07.344.209.474.42zM153.946 83.753l-.662.47a.58.58 0 00.22-.278l.662-.47a.587.587 0 01-.22.278zM154.166 83.474l-.661.47a.585.585 0 00.038-.263l.662-.47a.74.74 0 01-.005.133.939.939 0 01-.034.13z" fill="#185739"/><path d="M154.204 83.212l-.661.47a1.025 1.025 0 00-.164-.487l.662-.47c.102.17.156.336.163.487z" fill="#185739"/><path fill-rule="evenodd" clip-rule="evenodd" d="M155.981 88.166l-.198-8.037-.665.472.201 8.035.925.004.665-.473-.928-.001z" fill="#185739"/><path d="M151.672 83.578l-.661.47c-.196-.322-.302-.643-.314-.96l.661-.471c.016.315.122.636.314.961zM151.358 82.617l-.661.47a1.613 1.613 0 01.102-.645l.662-.471a1.538 1.538 0 00-.063.212c-.03.142-.043.289-.04.433zM151.461 81.971l-.662.47a1.62 1.62 0 01.605-.766l.662-.471a1.618 1.618 0 00-.605.767zM151.901 83.955l-.662.47-.228-.376.662-.47.228.376zM154.59 84.558l-.662.47a3.894 3.894 0 01-.171.112c-.459.266-.917.34-1.377.214-.462-.125-.842-.434-1.141-.928l.662-.471c.299.494.679.803 1.138.93.459.127.92.056 1.376-.213.061-.037.122-.073.175-.114z" fill="#185739"/><path fill-rule="evenodd" clip-rule="evenodd" d="M154.415 84.672c.457-.27.736-.628.843-1.08.108-.453.017-.918-.276-1.398l-.231-.38c-.3-.497-.678-.809-1.137-.935-.457-.124-.918-.053-1.379.215-.456.264-.736.628-.839 1.086-.103.459-.008.925.276 1.398l.229.377c.298.494.679.803 1.138.93.459.127.918.053 1.376-.213zm-.531-.877a.653.653 0 01-.555.063c-.19-.068-.348-.201-.48-.416l-.234-.386c-.137-.229-.192-.442-.16-.633a.616.616 0 01.315-.446.64.64 0 01.56-.062c.187.07.341.21.471.422l.239.392c.13.22.184.425.157.617a.597.597 0 01-.313.449zm1.899-3.666l.924.003.202 8.035-.928-.001-.198-8.037zm3.838 3.116c.457.123.84.435 1.145.939l.23.38c.284.473.378.936.275 1.39-.102.453-.384.813-.844 1.085-.465.27-.928.343-1.384.214-.459-.127-.835-.435-1.127-.92l-.239-.392c-.286-.476-.379-.945-.27-1.402.108-.458.39-.818.841-1.083.457-.261.916-.335 1.373-.211zm.43 1.856l-.245-.401c-.13-.211-.287-.35-.475-.415a.639.639 0 00-.552.061.606.606 0 00-.318.448c-.032.191.02.401.153.624l.241.395a.89.89 0 00.476.397c.2.07.387.054.56-.05.398-.229.449-.585.16-1.059z" fill="#2DA36A"/></g><g opacity=".5"><rect x="74.896" y="74.849" width=".439" height="28.599" rx=".219" transform="rotate(-6.265 74.896 74.85)" fill="#485C77"/><rect x="74.62" y="80.249" width="2.166" height="18.873" rx=".878" transform="rotate(-6.265 74.62 80.249)" fill="#5BBB7C"/><rect x="109.122" y="67.061" width=".439" height="34.674" rx=".219" transform="rotate(-6.265 109.122 67.061)" fill="#485C77"/><rect x="109.462" y="78.504" width="2.261" height="15.362" rx=".878" transform="rotate(-6.265 109.462 78.504)" fill="#5BBB7C"/><rect x="71.08" y="86.098" width=".439" height="22.823" rx=".219" transform="rotate(-6.265 71.08 86.098)" fill="#485C77"/><rect x="71.072" y="93.606" width="2.093" height="6.584" rx=".878" transform="rotate(-6.265 71.072 93.606)" fill="#DF5C3F"/><rect x="80.088" y="76.139" width=".439" height="25.018" rx=".219" transform="rotate(-6.265 80.088 76.14)" fill="#485C77"/><rect x="80.022" y="82.769" width="2.017" height="10.973" rx=".878" transform="rotate(-6.265 80.022 82.77)" fill="#DF5C3F"/><rect x="85.173" y="78.934" width=".439" height="36.868" rx=".219" transform="rotate(-6.265 85.173 78.934)" fill="#485C77"/><rect x="85.172" y="86.44" width="2.079" height="20.629" rx=".878" transform="rotate(-6.265 85.172 86.44)" fill="#DF5C3F"/><rect x="116.105" y="81.017" width=".837" height="23.262" rx=".418" transform="rotate(-6.265 116.105 81.017)" fill="#485C77"/><rect x="115.84" y="86.28" width="2.51" height="11.325" rx=".878" transform="rotate(-6.265 115.84 86.28)" fill="#5BBB7C"/><rect x="89.685" y="74.023" width=".439" height="45.646" rx=".219" transform="rotate(-6.265 89.685 74.023)" fill="#485C77"/><rect x="89.466" y="81.553" width="2.518" height="29.846" rx=".878" transform="rotate(-6.265 89.466 81.553)" fill="#5BBB7C"/><rect x="95.298" y="79.147" width=".439" height="38.185" rx=".219" transform="rotate(-6.265 95.298 79.147)" fill="#485C77"/><rect x="95.006" y="85.36" width="2.375" height="24.579" rx=".878" transform="rotate(-6.265 95.006 85.36)" fill="#5BBB7C"/><rect x="100" y="75.981" width=".439" height="42.135" rx=".219" transform="rotate(-6.265 100 75.981)" fill="#485C77"/><rect x="99.841" y="83.505" width="2.399" height="27.651" rx=".878" transform="rotate(-6.265 99.84 83.505)" fill="#DF5C3F"/><rect x="106.107" y="85.594" width=".439" height="29.407" rx=".219" transform="rotate(-6.265 106.107 85.594)" fill="#485C77"/><rect x="106.202" y="93.973" width="2.078" height="14.045" rx=".878" transform="rotate(-6.265 106.202 93.973)" fill="#DF5C3F"/></g></g><defs><filter id="filter0_f" x="-9.66" y="46.446" width="15.781" height="15.759" filterUnits="userSpaceOnUse" color-interpolation-filters="sRGB"><feFlood flood-opacity="0" result="BackgroundImageFix"/><feBlend in="SourceGraphic" in2="BackgroundImageFix" result="shape"/><feGaussianBlur stdDeviation="2" result="effect1_foregroundBlur"/></filter><filter id="filter1_f" x="71.265" y="47.337" width="8.447" height="8.434" filterUnits="userSpaceOnUse" color-interpolation-filters="sRGB"><feFlood flood-opacity="0" result="BackgroundImageFix"/><feBlend in="SourceGraphic" in2="BackgroundImageFix" result="shape"/><feGaussianBlur stdDeviation="1" result="effect1_foregroundBlur"/></filter><filter id="filter2_f" x="213.553" y="60.639" width="8.447" height="8.434" filterUnits="userSpaceOnUse" color-interpolation-filters="sRGB"><feFlood flood-opacity="0" result="BackgroundImageFix"/><feBlend in="SourceGraphic" in2="BackgroundImageFix" result="shape"/><feGaussianBlur stdDeviation="1" result="effect1_foregroundBlur"/></filter><filter id="filter3_f" x="20.354" y="12.084" width="12.447" height="12.434" filterUnits="userSpaceOnUse" color-interpolation-filters="sRGB"><feFlood flood-opacity="0" result="BackgroundImageFix"/><feBlend in="SourceGraphic" in2="BackgroundImageFix" result="shape"/><feGaussianBlur stdDeviation="2" result="effect1_foregroundBlur"/></filter><filter id="filter4_f" x="10.349" y="88.566" width="12.447" height="12.434" filterUnits="userSpaceOnUse" color-interpolation-filters="sRGB"><feFlood flood-opacity="0" result="BackgroundImageFix"/><feBlend in="SourceGraphic" in2="BackgroundImageFix" result="shape"/><feGaussianBlur stdDeviation="2" result="effect1_foregroundBlur"/></filter><filter id="filter5_f" x="124.623" y="92.783" width="6.223" height="6.217" filterUnits="userSpaceOnUse" color-interpolation-filters="sRGB"><feFlood flood-opacity="0" result="BackgroundImageFix"/><feBlend in="SourceGraphic" in2="BackgroundImageFix" result="shape"/><feGaussianBlur stdDeviation="1" result="effect1_foregroundBlur"/></filter><filter id="filter6_f" x="168.2" y="1" width="14.67" height="14.651" filterUnits="userSpaceOnUse" color-interpolation-filters="sRGB"><feFlood flood-opacity="0" result="BackgroundImageFix"/><feBlend in="SourceGraphic" in2="BackgroundImageFix" result="shape"/><feGaussianBlur stdDeviation="2" result="effect1_foregroundBlur"/></filter><filter id="filter7_f" x="-15" y="-1" width="74.873" height="74.873" filterUnits="userSpaceOnUse" color-interpolation-filters="sRGB"><feFlood flood-opacity="0" result="BackgroundImageFix"/><feBlend in="SourceGraphic" in2="BackgroundImageFix" result="shape"/><feGaussianBlur stdDeviation=".5" result="effect1_foregroundBlur"/></filter><filter id="filter8_f" x="4" y="74" width="31.629" height="33.835" filterUnits="userSpaceOnUse" color-interpolation-filters="sRGB"><feFlood flood-opacity="0" result="BackgroundImageFix"/><feBlend in="SourceGraphic" in2="BackgroundImageFix" result="shape"/><feGaussianBlur stdDeviation=".5" result="effect1_foregroundBlur"/></filter><filter id="filter9_f" x="109" y="1" width="19.654" height="20.274" filterUnits="userSpaceOnUse" color-interpolation-filters="sRGB"><feFlood flood-opacity="0" result="BackgroundImageFix"/><feBlend in="SourceGraphic" in2="BackgroundImageFix" result="shape"/><feGaussianBlur stdDeviation=".5" result="effect1_foregroundBlur"/></filter><filter id="filter10_f" x="149" y="77.1" width="14" height="14.404" filterUnits="userSpaceOnUse" color-interpolation-filters="sRGB"><feFlood flood-opacity="0" result="BackgroundImageFix"/><feBlend in="SourceGraphic" in2="BackgroundImageFix" result="shape"/><feGaussianBlur stdDeviation=".5" result="effect1_foregroundBlur"/></filter><clipPath id="clip0"><path fill="#fff" d="M0 0h216v100H0z"/></clipPath><clipPath id="clip1"><path fill="#fff" transform="translate(106 14)" d="M0 0h66v61H0z"/></clipPath><clipPath id="clip2"><path fill="#fff" transform="rotate(23.195 -175.2 74.156)" d="M0 0h21.305v25.505H0z"/></clipPath><clipPath id="clip3"><path fill="#fff" transform="rotate(-34.112 69.021 -174.97)" d="M0 0h11.775v14.096H0z"/></clipPath><clipPath id="clip4"><path fill="#fff" transform="rotate(-34.112 209.622 -203.159)" d="M0 0h8.03v9.542H0z"/></clipPath><linearGradient id="paint0_linear" x1="73.151" y1="34.217" x2="78.734" y2="62.775" gradientUnits="userSpaceOnUse"><stop stop-color="#2DA36A"/><stop offset="1" stop-color="#2DA36A" stop-opacity=".03"/></linearGradient><linearGradient id="paint1_linear" x1="59.087" y1="38.819" x2="65.801" y2="153.039" gradientUnits="userSpaceOnUse"><stop stop-color="#36374B"/><stop offset="1" stop-color="#181821"/></linearGradient><linearGradient id="paint2_linear" x1="116.982" y1="13.577" x2="40.217" y2="154.536" gradientUnits="userSpaceOnUse"><stop stop-color="#333449"/><stop offset=".542" stop-color="#1D1E2A" stop-opacity=".47"/><stop offset="1" stop-color="#050506"/></linearGradient><linearGradient id="paint3_linear" x1="95.339" y1="57.518" x2="94.441" y2="162.685" gradientUnits="userSpaceOnUse"><stop stop-color="#7885A8"/><stop offset="1" stop-color="#041032"/></linearGradient></defs></svg>
