<svg width="208" height="100" fill="none" xmlns="http://www.w3.org/2000/svg"><g clip-path="url(#clip0)"><g opacity=".1" filter="url(#filter0_f)"><circle r="3.5" transform="matrix(-1 0 0 1 12.5 55.5)" fill="#48A6EB"/></g><g opacity=".3" filter="url(#filter1_f)"><circle r="2" transform="matrix(-1 0 0 1 82 53)" fill="#48A6EB"/></g><g opacity=".3" filter="url(#filter2_f)"><circle r="2" transform="matrix(-1 0 0 1 210 65)" fill="#48A6EB"/></g><g opacity=".5" filter="url(#filter3_f)"><circle r="2" transform="matrix(-1 0 0 1 38 23)" fill="#48A6EB"/></g><g opacity=".5" filter="url(#filter4_f)"><circle r="2" transform="matrix(-1 0 0 1 38 82)" fill="#48A6EB"/></g><g opacity=".5" filter="url(#filter5_f)"><circle r="1" transform="matrix(-1 0 0 1 129 93)" fill="#48A6EB"/></g><g opacity=".5" filter="url(#filter6_f)"><circle r="1" transform="matrix(-1 0 0 1 3 26)" fill="#48A6EB"/></g><g opacity=".4" filter="url(#filter7_f)"><circle r="1" transform="matrix(-1 0 0 1 -2 83)" fill="#48A6EB"/></g><g opacity=".2" filter="url(#filter8_f)"><circle r="3" transform="matrix(-1 0 0 1 172 14)" fill="#48A6EB"/></g><g filter="url(#filter9_f)"><path fill-rule="evenodd" clip-rule="evenodd" d="M143.935 53.214a1 1 0 001.67-.38l12.481-37.76a1 1 0 00-1.182-1.287l-39.683 9.487a1 1 0 00-.488 1.666l5.601 5.822-27.653 25.453-20.564-27.308c-1.967-2.616-5.02-4.34-8.363-4.724-3.36-.391-6.69.616-9.121 2.756l-114.859 83.238c-5.083 4.48-5.138 11.753-.127 16.196 2.265 2.008 5.162 3.085 8.12 3.24 3.55.189 7.172-.951 9.88-3.39l103.71-74.577 20.845 27.112c1.927 2.51 4.895 4.092 8.127 4.338 3.214.245 6.38-.856 8.673-3.008l36.146-33.928 6.787 7.054z" fill="url(#paint0_linear)" fill-opacity=".3"/><g opacity=".15" clip-path="url(#clip1)" filter="url(#filter10_f)"><path d="M159.526 82.052l-1.724 1.292-.673-1.061 1.724-1.293.673 1.062zM159.389 84.75l-1.725 1.292c.3-.227.498-.477.598-.78l1.724-1.291a1.684 1.684 0 01-.597.778z" fill="#185739"/><path d="M159.986 83.97l-1.724 1.293c.057-.175.089-.368.066-.57l1.724-1.292c.015.208-.009.395-.066.57z" fill="#185739"/><path d="M160.052 83.4l-1.724 1.293c-.032-.402-.206-.849-.526-1.349l1.724-1.292c.321.5.494.947.526 1.349zM158.853 80.99l-1.724 1.293c-.361-.556-.79-.918-1.294-1.08-.504-.162-.99-.094-1.463.195-.057.04-.111.067-.161.115l1.724-1.292.161-.115c.473-.29.959-.357 1.463-.195.505.162.933.523 1.294 1.08zM153.272 84.431l-1.724 1.293c-.546-.85-.845-1.693-.91-2.532l1.724-1.293c.065.84.364 1.683.91 2.532z" fill="#185739"/><path d="M152.368 81.907l-1.725 1.293a4.813 4.813 0 01.077-1.185c.038-.185.088-.353.145-.528l1.724-1.292a4.215 4.215 0 00-.221 1.713z" fill="#185739"/><path d="M152.589 80.195l-1.724 1.292c.28-.832.801-1.531 1.569-2.105l1.724-1.292c-.76.567-1.289 1.273-1.569 2.105zM153.935 85.463l-1.732 1.298-.656-1.037 1.724-1.293.664 1.032z" fill="#185739"/><path d="M161.13 86.881l-1.724 1.293c-.145.103-.298.212-.456.313-1.216.747-2.442.968-3.665.65-1.23-.31-2.251-1.111-3.066-2.388l1.724-1.292c.815 1.276 1.839 2.063 3.067 2.388 1.23.311 2.449.097 3.664-.65.159-.101.303-.205.456-.314zM143.365 76.073l-1.724 1.292-.664-1.032 1.732-1.298.656 1.038z" fill="#185739"/><path d="M142.709 75.035l-1.724 1.293c-.361-.556-.781-.924-1.283-1.1-.497-.167-.996-.102-1.486.2-.048.034-.11.066-.152.108l1.716-1.286.152-.11c.49-.3.989-.366 1.486-.198.502.175.93.537 1.291 1.093zM143.193 78.806l-1.724 1.293c.276-.21.465-.454.565-.756l1.724-1.293c-.1.303-.297.553-.565.756z" fill="#185739"/><path d="M143.758 78.05l-1.724 1.293c.04-.114.059-.224.079-.348.013-.119.018-.231.003-.354l1.724-1.293c.009.115.01.236-.002.354-.021.124-.048.24-.08.348z" fill="#185739"/><path d="M143.84 77.348l-1.724 1.293c-.024-.408-.186-.839-.473-1.29l1.725-1.293c.286.452.44.888.472 1.29z" fill="#185739"/><path fill-rule="evenodd" clip-rule="evenodd" d="M148.939 90.453l-1.136-21.412-1.733 1.298 1.144 21.407 2.459-.044 1.732-1.298-2.466.05z" fill="#185739"/><path d="M137.136 78.47l-1.724 1.293c-.546-.85-.851-1.7-.908-2.546l1.724-1.292c.066.84.37 1.69.908 2.545z" fill="#185739"/><path d="M136.228 75.925l-1.724 1.292a4.266 4.266 0 01.072-1.157c.04-.198.092-.381.152-.57l1.724-1.292c-.065.18-.111.371-.152.57a4.92 4.92 0 00-.072 1.157z" fill="#185739"/><path d="M136.452 74.198l-1.724 1.293c.278-.818.79-1.512 1.55-2.08l1.725-1.292c-.761.567-1.273 1.261-1.551 2.08zM137.771 79.461l-1.724 1.293-.635-.992 1.724-1.292.635.991z" fill="#185739"/><path d="M144.967 80.915l-1.724 1.293c-.145.103-.29.207-.448.308-1.2.735-2.413.958-3.643.647-1.238-.306-2.273-1.109-3.105-2.41l1.724-1.292c.832 1.3 1.867 2.104 3.097 2.415 1.23.311 2.449.096 3.643-.647.158-.101.317-.202.456-.314z" fill="#185739"/><path fill-rule="evenodd" clip-rule="evenodd" d="M144.511 81.23c1.193-.744 1.908-1.716 2.159-2.928.252-1.212-.024-2.448-.841-3.71l-.641-1c-.837-1.308-1.864-2.117-3.095-2.428-1.224-.303-2.443-.088-3.65.653-1.192.73-1.908 1.715-2.148 2.943-.241 1.228.049 2.466.841 3.71l.635.992c.832 1.3 1.867 2.103 3.097 2.414 1.23.311 2.443.088 3.643-.647zm-1.479-2.309c-.473.29-.959.358-1.471.201-.51-.17-.941-.517-1.308-1.082l-.652-1.015c-.382-.602-.543-1.167-.471-1.68.071-.512.337-.92.803-1.204.489-.302.989-.367 1.485-.2.502.176.922.544 1.283 1.1l.664 1.032c.364.577.522 1.12.464 1.635-.057.515-.324.924-.797 1.213zm4.77-9.88l2.459-.044 1.144 21.407-2.466.05-1.137-21.413zm10.441 8.086c1.224.303 2.265 1.114 3.114 2.439l.641 1c.792 1.243 1.075 2.474.838 3.688-.238 1.214-.961 2.192-2.162 2.94-1.215.747-2.442.968-3.665.651-1.23-.311-2.251-1.112-3.066-2.388l-.664-1.032c-.797-1.252-1.078-2.496-.825-3.721.254-1.226.977-2.204 2.154-2.936 1.197-.721 2.41-.944 3.635-.64zm1.283 4.925l-.681-1.056c-.361-.556-.789-.918-1.294-1.08-.504-.162-.99-.094-1.463.196-.473.29-.746.69-.811 1.21-.071.513.084 1.07.454 1.656l.669 1.04c.327.507.758.855 1.295 1.03.538.174 1.035.123 1.487-.163 1.04-.635 1.149-1.587.344-2.833z" fill="#2DA36A"/></g><g opacity=".15" clip-path="url(#clip2)" filter="url(#filter11_f)"><path d="M122.994 15.278l-1.006-.177.148-.577 1.007.176-.149.578zM122.017 16.106l-1.006-.176a.76.76 0 00.463-.047l1.007.177a.798.798 0 01-.464.046zM122.481 16.06l-1.007-.177a.64.64 0 00.219-.162l1.006.176a.691.691 0 01-.218.162z" fill="#185739"/><path d="M122.699 15.897l-1.006-.176c.128-.142.226-.347.295-.62l1.006.177c-.068.273-.166.478-.295.62zM123.143 14.7l-1.007-.176c.075-.305.061-.571-.047-.798a.802.802 0 00-.542-.442c-.033-.007-.059-.017-.092-.019l1.006.177.092.018c.254.07.435.215.543.442.108.227.122.493.047.798zM120.141 13.888l-1.006-.176c.116-.464.31-.841.579-1.137l1.007.177c-.269.295-.463.672-.58 1.136z" fill="#185739"/><path d="M120.72 12.756l-1.006-.176c.127-.137.275-.256.434-.358.076-.047.151-.085.23-.122l1.006.177a2.045 2.045 0 00-.664.48z" fill="#185739"/><path d="M121.384 12.277l-1.006-.177c.378-.173.789-.22 1.237-.14l1.006.176a2.055 2.055 0 00-1.237.14zM120 14.453l-1.011-.178.146-.563 1.006.176-.141.565zM121.846 17.4l-1.007-.176c-.082-.017-.17-.034-.256-.056-.653-.178-1.127-.53-1.415-1.056-.292-.526-.346-1.139-.17-1.835l1.007.177c-.177.695-.116 1.305.17 1.835.292.526.762.878 1.415 1.055.086.022.169.039.256.056zM119.814 7.75l-1.006-.176.141-.565 1.011.178-.146.563z" fill="#185739"/><path d="M119.959 7.186l-1.006-.176c.075-.305.065-.57-.037-.8a.803.803 0 00-.551-.45c-.027-.005-.059-.016-.087-.017l1.002.176.087.017a.803.803 0 01.551.449c.102.23.116.496.041.801zM118.813 8.578l-1.006-.176a.732.732 0 00.444-.05l1.007.176a.746.746 0 01-.445.05z" fill="#185739"/><path d="M119.258 8.528l-1.007-.176a.89.89 0 00.146-.086.696.696 0 00.123-.114l1.007.176a.926.926 0 01-.123.115c-.05.033-.098.061-.146.085z" fill="#185739"/><path d="M119.527 8.329l-1.006-.177c.133-.14.229-.336.292-.582l1.007.176c-.063.246-.164.44-.293.582z" fill="#185739"/><path fill-rule="evenodd" clip-rule="evenodd" d="M116.653 14.346L123.685 7l-1.011-.178-7.028 7.346.814.836 1.011.177-.818-.836z" fill="#185739"/><path d="M116.963 6.375l-1.007-.176c.116-.464.312-.846.585-1.14l1.007.176c-.269.295-.465.677-.585 1.14zM117.548 5.235l-1.007-.176a2.046 2.046 0 01.67-.483l1.006.176a1.943 1.943 0 00-.246.132 2.327 2.327 0 00-.423.351zM118.217 4.752l-1.006-.177c.373-.17.779-.217 1.222-.139l1.006.177a2.028 2.028 0 00-1.222.139z" fill="#185739"/><path d="M116.826 6.917l-1.006-.177.136-.541 1.007.176-.137.542z" fill="#185739"/><path d="M118.66 9.876l-1.007-.176c-.082-.017-.165-.033-.251-.055-.644-.176-1.115-.523-1.407-1.05-.296-.527-.355-1.145-.175-1.855l1.006.177c-.179.71-.121 1.328.171 1.854.292.526.762.878 1.406 1.05.087.021.173.043.257.055z" fill="#185739"/><path fill-rule="evenodd" clip-rule="evenodd" d="M118.403 9.82c.645.171 1.213.103 1.713-.204.501-.306.839-.803 1.01-1.495l.137-.546c.18-.715.126-1.332-.165-1.858-.293-.522-.763-.874-1.411-1.05-.639-.175-1.213-.103-1.715.213-.503.315-.837.818-1.01 1.495l-.136.542c-.179.71-.121 1.328.171 1.854.292.526.763.873 1.406 1.05zm.318-1.26a.818.818 0 01-.547-.444c-.107-.231-.127-.493-.051-.803l.139-.555c.085-.327.228-.566.428-.708a.769.769 0 01.677-.114.803.803 0 01.551.449c.102.23.112.495.037.8l-.141.565c-.082.313-.218.544-.415.691a.748.748 0 01-.678.119zM123.685 7l.814.836-7.028 7.346-.818-.836L123.685 7zm.595 6.235c.293.522.35 1.145.168 1.868l-.137.546c-.173.678-.506 1.175-1.003 1.487-.497.312-1.07.38-1.719.208-.652-.178-1.127-.53-1.414-1.056-.292-.526-.347-1.139-.17-1.835l.141-.564c.174-.682.512-1.184 1.018-1.494.506-.31 1.079-.378 1.714-.208.638.18 1.109.526 1.402 1.048zm-1.286 2.042l.144-.578c.075-.305.061-.57-.047-.798a.802.802 0 00-.542-.442.76.76 0 00-.682.113c-.2.142-.343.376-.425.694l-.142.57c-.07.277-.05.539.064.781a.798.798 0 00.539.461c.557.154.922-.118 1.091-.8z" fill="#2DA36A"/></g><g opacity=".15" clip-path="url(#clip3)" filter="url(#filter12_f)"><path d="M17.062 10.155l-.616.816-.446-.396.615-.815.447.395zM17.354 11.402l-.615.816a.761.761 0 00.17-.434l.615-.816a.796.796 0 01-.17.434zM17.524 10.968l-.616.816a.632.632 0 00-.045-.268l.616-.816a.694.694 0 01.045.268z" fill="#185739"/><path d="M17.48 10.7l-.616.816c-.068-.18-.206-.36-.418-.546l.616-.815c.212.185.35.366.417.545zM16.615 9.76l-.615.816c-.238-.206-.48-.315-.732-.322a.803.803 0 00-.64.281c-.021.026-.042.045-.059.074l.616-.816.058-.073a.803.803 0 01.64-.282c.252.007.495.116.732.322zM14.525 12.062l-.615.816c-.36-.316-.608-.66-.748-1.034l.615-.816c.14.374.388.719.748 1.034z" fill="#185739"/><path d="M13.781 11.03l-.615.817a2.266 2.266 0 01-.121-.55 2.193 2.193 0 01-.004-.26l.616-.816a2.013 2.013 0 00.124.81z" fill="#185739"/><path d="M13.657 10.221l-.616.816c.019-.416.164-.803.438-1.165l.616-.816c-.272.359-.42.75-.438 1.165zM14.963 12.444l-.618.82-.435-.386.615-.816.438.382zM18.428 12.144l-.616.816a4.93 4.93 0 01-.166.203c-.456.5-.985.762-1.584.778-.602.02-1.172-.21-1.711-.684l.615-.816c.54.474 1.11.698 1.711.684.602-.02 1.129-.278 1.585-.778.058-.067.11-.133.166-.203zM8.912 9.557l-.616.816-.438-.383.619-.82.435.387zM8.476 9.17l-.615.816c-.238-.205-.478-.318-.73-.332a.804.804 0 00-.65.286c-.018.023-.042.045-.055.07l.612-.812.056-.07a.804.804 0 01.65-.286c.252.014.495.123.732.329zM9.193 10.825l-.615.816a.734.734 0 00.158-.419l.615-.816a.745.745 0 01-.158.42z" fill="#185739"/><path d="M9.351 10.406l-.615.816c.003-.057-.003-.11-.01-.169a.722.722 0 00-.046-.161l.616-.816c.02.051.036.106.046.161.006.06.01.116.01.17z" fill="#185739"/><path d="M9.296 10.076l-.615.816c-.065-.183-.196-.358-.385-.526l.615-.816c.19.168.318.347.385.526z" fill="#185739"/><path fill-rule="evenodd" clip-rule="evenodd" d="M13.343 15.376l-3.335-9.607-.618.82 3.338 9.602 1.114-.343.618-.82-1.117.348z" fill="#185739"/><path d="M6.389 11.47l-.616.815c-.36-.315-.61-.663-.748-1.04l.615-.816c.14.374.392.721.749 1.04z" fill="#185739"/><path d="M5.64 10.429l-.615.815a2.03 2.03 0 01-.125-.816l.615-.815c-.006.09-.002.183.006.28.018.18.06.363.12.536z" fill="#185739"/><path d="M5.515 9.613l-.615.815c.019-.409.16-.792.433-1.151l.615-.816a2.029 2.029 0 00-.433 1.152zM6.809 11.837l-.616.816-.42-.368.616-.816.42.368z" fill="#185739"/><path d="M10.279 11.553l-.616.815c-.052.067-.105.133-.163.2-.45.492-.973.754-1.575.774-.604.024-1.182-.206-1.732-.69l.616-.815c.55.483 1.127.713 1.729.693.601-.02 1.128-.279 1.574-.774a2.49 2.49 0 00.167-.203z" fill="#185739"/><path fill-rule="evenodd" clip-rule="evenodd" d="M10.112 11.756c.446-.496.644-1.033.599-1.618-.045-.585-.333-1.112-.872-1.58l-.423-.37c-.554-.487-1.128-.72-1.73-.7-.598.023-1.125.281-1.577.778-.447.489-.644 1.032-.592 1.623.053.591.348 1.118.872 1.58l.42.368c.55.483 1.127.713 1.729.693.601-.02 1.124-.281 1.574-.774zm-.977-.857a.82.82 0 01-.644.285c-.255-.01-.497-.112-.738-.32l-.431-.378c-.253-.224-.4-.46-.436-.703a.77.77 0 01.208-.655.804.804 0 01.65-.286c.252.014.492.127.73.332l.438.383c.242.215.385.442.426.684a.749.749 0 01-.203.658zm.873-5.13l1.115-.343 3.338 9.603-1.118.347-3.335-9.607zm5.82 2.31c.599-.022 1.18.21 1.74.702l.424.371c.525.463.816.986.867 1.57.052.585-.149 1.126-.598 1.625-.455.5-.985.762-1.584.778-.601.02-1.172-.21-1.711-.684l-.438-.383c-.528-.465-.82-.995-.866-1.587-.046-.592.155-1.132.595-1.62.45-.487.974-.748 1.572-.771zm1.234 2.076l-.45-.392c-.237-.205-.48-.314-.731-.321a.803.803 0 00-.641.281.76.76 0 00-.21.659c.035.242.179.476.424.694l.442.386c.216.188.458.29.726.299a.798.798 0 00.655-.27c.391-.426.316-.874-.215-1.336z" fill="#2DA36A"/></g></g><path fill-rule="evenodd" clip-rule="evenodd" d="M60.677 44.908l15.682-10.96-1.265-1.81-15.682 10.96.513.734-.194.034-20.225-5.87-.616 2.12 19.223 5.58L60.23 57.91l2.176-.377-2.233-12.874.097-.333.406.581z" fill="#303142"/><path fill-rule="evenodd" clip-rule="evenodd" d="M61.899 44.854l15.106-10.558-1.265-1.81-15.248 10.658-20.34-5.904-.615 2.12 20.184 5.86 2.26 13.04 2.177-.378-2.26-13.028z" fill="url(#paint1_linear)"/><g clip-path="url(#clip4)"><path d="M33.488 14.538c-2.87.346-5.592 1.465-7.93 3.044a20.024 20.024 0 00-4.543 4.312l-2.533-.238c1.32-1.698 2.858-3.191 4.601-4.37 2.339-1.59 5.002-2.64 7.871-2.986a16.884 16.884 0 013.616-.054l2.333.22a16.3 16.3 0 00-3.415.072zM37.104 14.484a13.42 13.42 0 00-.201-.019l.2.02z" fill="#303142"/><path d="M33.037 56.917l-2.516-.236c-8.802-.833-15.991-8.621-16.77-18.93a23.971 23.971 0 011.72-10.88l-.01-.002a22.582 22.582 0 013.01-5.213l2.544.238a23.19 23.19 0 00-3.02 5.212l.01.001A23.996 23.996 0 0016.284 38c.779 10.302 7.959 18.086 16.753 18.917z" fill="#303142"/><path d="M37.063 14.704c10.218.962 17.658 11.123 16.562 22.748C52.528 49.077 43.317 57.67 33.1 56.708 22.883 55.746 15.442 45.584 16.54 33.96c1.097-11.625 10.307-20.219 20.524-19.257z" fill="url(#paint2_linear)" stroke="#303142" stroke-width=".428"/><path d="M52.316 37.178c1.028-10.906-5.88-20.475-15.43-21.375-9.55-.9-18.126 7.212-19.155 18.117-1.028 10.906 5.88 20.475 15.43 21.375 9.55.9 18.126-7.212 19.154-18.117z" fill="#303142"/><path d="M51.31 37.24c.992-10.509-5.584-19.722-14.686-20.579-9.103-.857-17.285 6.966-18.277 17.474-.991 10.507 5.584 19.72 14.686 20.578 9.103.857 17.286-6.966 18.277-17.474z" fill="#7885A8"/><path fill-rule="evenodd" clip-rule="evenodd" d="M38.475 35.635h-.01c.167-.115.364-.177.551-.208.053-.01.104-.01.146-.01l.137.012c.114.004.228.014.341.029l2.156.203a3.512 3.512 0 00-.192-.006l-.094-.009a1.374 1.374 0 00-.611.215l.009.002a1.047 1.047 0 00-.166.135 7.113 7.113 0 01-1.154.965l-2.431-.228c.405-.28.79-.602 1.153-.966.052-.051.103-.093.165-.134zm3.597.051a3.574 3.574 0 00-.276-.026l.276.026zm-9.478 2.253l2.432.229c.478.052.966.041 1.444-.021a7.034 7.034 0 003.118-1.184l-2.432-.228a7.034 7.034 0 01-3.117 1.184 6.732 6.732 0 01-1.445.02zm-1.34-1.048l-2.431-.229a.702.702 0 01.207 0l2.39.225c-.032-.002-.063 0-.095.001a1.35 1.35 0 01-.07.003zm.208 0a.422.422 0 00-.042-.004l.042.004zm-2.837-.177c.062-.02.125-.042.187-.042l2.432.229a.682.682 0 00-.187.041 8.45 8.45 0 00-2.442 1.142l-2.432-.228a8.188 8.188 0 012.442-1.142zm6.047 13.601l-2.431-.228a12.464 12.464 0 01-5.84-2.118l2.431.228a12.578 12.578 0 005.84 2.118zm-8.271-2.346l2.432.228c-.52-.384-1.04-.779-1.507-1.205a12 12 0 01-1.538-1.619 15.55 15.55 0 01-.925-1.277h-.006c-.1-.196-.149-.43-.077-.633l-2.432-.229c-.073.208-.02.447.083.644h.007c.279.453.619.896.918 1.267.478.602.977 1.131 1.538 1.62.468.435.987.82 1.507 1.203zm.114-7.89a9.518 9.518 0 012.1-1.994l-2.432-.229a9.296 9.296 0 00-2.1 1.994c-.436.56-.82 1.183-1.143 1.848l2.432.228c.322-.664.706-1.287 1.143-1.848zm-1.386 2.397h.004c.072-.187.155-.373.25-.54l-2.433-.228a5.084 5.084 0 00-.245.53H22.7c-.135.332-.25.664-.343.986l2.421.228c.093-.308.216-.647.35-.976z" fill="#303142"/><path d="M35.11 19.988l-2.431-.228a6.338 6.338 0 011.33-.02l2.432.228a6.338 6.338 0 00-1.33.02z" fill="#000068"/><path fill-rule="evenodd" clip-rule="evenodd" d="M29.768 20.871l2.432.229a6.596 6.596 0 012.91-1.111l-2.432-.229a6.596 6.596 0 00-2.91 1.111zm-1.724 1.63h.002a8.83 8.83 0 00-1.115 1.941l2.421.229a8.482 8.482 0 011.133-1.952 7.703 7.703 0 011.706-1.62l-2.432-.228a7.732 7.732 0 00-1.715 1.63zm4.479 12.998l2.411.227c-3.254-.311-5.924-3.214-6.225-7.027a8.691 8.691 0 01.634-4.028l-2.432-.229a8.968 8.968 0 00-.634 4.029c.291 3.82 2.982 6.717 6.246 7.028z" fill="#303142"/><mask id="a" fill="#fff"><path fill-rule="evenodd" clip-rule="evenodd" d="M36.44 19.97c3.845.362 6.63 4.182 6.219 8.532-.41 4.35-3.86 7.583-7.706 7.22-3.846-.361-6.63-4.181-6.22-8.531.41-4.35 3.86-7.583 7.706-7.221zm-4.478 17.097a1.05 1.05 0 00-.706-.176c-.021.003-.043.008-.065.013a.653.653 0 01-.122.018c-2.411.675-4.49 2.492-5.685 4.994a9.452 9.452 0 00-.592 1.526c-.073.208-.02.447.083.644.28.457.623.903.925 1.277.478.602.977 1.132 1.538 1.62.467.436.987.82 1.507 1.204 2.556 1.734 5.539 2.44 8.521 2.076 2.983-.363 5.799-1.785 8.054-4.1.457-.478.904-1.018 1.299-1.548.447-.602.894-1.246 1.268-1.952.27-.488.509-.965.717-1.474.135-.228.145-.467.041-.664a6.819 6.819 0 00-.81-1.36c-1.58-2.16-3.866-3.437-6.329-3.52-.041 0-.093 0-.145.01-.26.032-.53.146-.718.343-1.205 1.225-2.68 1.952-4.27 2.15a6.66 6.66 0 01-4.51-1.08z"/></mask><path fill-rule="evenodd" clip-rule="evenodd" d="M36.44 19.97c3.845.362 6.63 4.182 6.219 8.532-.41 4.35-3.86 7.583-7.706 7.22-3.846-.361-6.63-4.181-6.22-8.531.41-4.35 3.86-7.583 7.706-7.221zm-4.478 17.097a1.05 1.05 0 00-.706-.176c-.021.003-.043.008-.065.013a.653.653 0 01-.122.018c-2.411.675-4.49 2.492-5.685 4.994a9.452 9.452 0 00-.592 1.526c-.073.208-.02.447.083.644.28.457.623.903.925 1.277.478.602.977 1.132 1.538 1.62.467.436.987.82 1.507 1.204 2.556 1.734 5.539 2.44 8.521 2.076 2.983-.363 5.799-1.785 8.054-4.1.457-.478.904-1.018 1.299-1.548.447-.602.894-1.246 1.268-1.952.27-.488.509-.965.717-1.474.135-.228.145-.467.041-.664a6.819 6.819 0 00-.81-1.36c-1.58-2.16-3.866-3.437-6.329-3.52-.041 0-.093 0-.145.01-.26.032-.53.146-.718.343-1.205 1.225-2.68 1.952-4.27 2.15a6.66 6.66 0 01-4.51-1.08z" fill="url(#paint3_linear)"/><path d="M42.659 28.502l-.426-.04.426.04zm-6.22-8.532l.04-.426-.04.426zm-1.486 15.753l.04-.426-.04.426zm-6.22-8.532l-.426-.04.426.04zm2.523 9.7l-.053-.425-.01.001-.008.001.07.423zm.706.176l-.241.354.005.003.236-.357zm-.771-.163l.088.419-.088-.42zm-.122.018v-.428h-.06l-.056.016.116.412zm-5.685 4.994l.383.192.004-.008-.387-.184zm-.592 1.526l.404.142.004-.011.003-.01-.411-.12zm.083.644l-.379.2.007.012.007.012.365-.224zm.925 1.277l.335-.267-.002-.002-.333.269zm1.538 1.62l.292-.314-.005-.005-.006-.005-.281.324zm1.507 1.204l-.255.344.007.005.007.005.24-.354zm8.521 2.076l-.052-.425.052.425zm8.054-4.1l.307.298.002-.003-.31-.296zm1.299-1.548l.343.256-.343-.256zm1.268-1.952l-.375-.207-.004.007.379.2zm.717-1.474l-.369-.218-.016.027-.012.03.397.161zm.041-.664l-.392.171.006.015.007.013.38-.2zm-.81-1.36l-.346.252.003.005.343-.257zm-6.329-3.52l.014-.428h-.014v.428zm-.145.01l.05.425.017-.001.017-.004-.084-.42zm-.718.343l.306.3.005-.005-.31-.295zm-4.27 2.15l.05.424h.002l-.053-.425zm6.612-9.606c.428-4.534-2.477-8.61-6.606-8.998l-.08.852c3.562.336 6.227 3.9 5.834 8.066l.852.08zm-8.172 7.607c4.129.39 7.745-3.072 8.172-7.607l-.852-.08c-.393 4.165-3.678 7.17-7.24 6.835l-.08.852zm-6.606-8.999c-.428 4.535 2.477 8.61 6.606 9l.08-.853c-3.562-.336-6.227-3.9-5.834-8.066l-.852-.08zm8.172-7.606c-4.129-.39-7.744 3.072-8.172 7.606l.852.08c.393-4.165 3.678-7.17 7.24-6.834l.08-.852zm-5.17 17.772a.622.622 0 01.412.105l.483-.707a1.478 1.478 0 00-1.001-.248l.106.85zm-.03.007l.047-.01-.14-.845a1.848 1.848 0 00-.083.016l.176.839zm-.21.027c.089 0 .182-.021.21-.027l-.176-.839a2.876 2.876 0 01-.047.01h-.004.017v.856zM25.77 42.1c1.147-2.402 3.133-4.128 5.413-4.766l-.23-.824c-2.543.711-4.714 2.62-5.956 5.221l.773.37zm-.568 1.462c.14-.477.338-1.003.564-1.454l-.766-.384a9.88 9.88 0 00-.62 1.598l.822.24zm.05.324c-.072-.139-.076-.249-.057-.302l-.808-.284c-.127.362-.027.73.108.985l.758-.399zm.88 1.208c-.298-.37-.627-.8-.893-1.232l-.73.448c.295.48.652.944.956 1.322l.667-.538zm1.486 1.565c-.54-.469-1.02-.979-1.484-1.562l-.67.532c.492.62 1.009 1.17 1.592 1.677l.562-.647zm1.48 1.183c-.523-.386-1.022-.756-1.47-1.173l-.583.627c.488.455 1.028.854 1.544 1.235l.51-.689zm8.215 1.996c-2.88.351-5.758-.33-8.229-2.006l-.48.71c2.641 1.791 5.728 2.522 8.813 2.146l-.104-.85zm7.8-3.974c-2.192 2.25-4.92 3.623-7.8 3.974l.104.85c3.085-.376 5.99-1.846 8.309-4.227l-.614-.597zm1.262-1.505a16.353 16.353 0 01-1.265 1.507l.618.592c.472-.492.93-1.046 1.333-1.587l-.686-.512zm1.232-1.896c-.359.678-.79 1.301-1.233 1.897l.688.51c.451-.608.913-1.272 1.302-2.006l-.757-.401zm.7-1.436c-.2.49-.431.951-.696 1.429l.75.415c.275-.498.522-.991.738-1.52l-.793-.324zm.058-.303c.025.048.04.128-.03.247l.736.436c.2-.337.235-.735.052-1.082l-.758.4zm-.774-1.302c.298.396.56.814.761 1.274l.785-.343a7.246 7.246 0 00-.86-1.446l-.686.515zm-6-3.349c2.318.078 4.487 1.28 5.997 3.344l.691-.505c-1.649-2.255-4.052-3.607-6.66-3.695l-.028.856zm-.047.002l.015-.001h.046v-.857c-.037 0-.13-.002-.23.018l.169.84zm-.49.218a.77.77 0 01.456-.212l-.101-.85c-.34.04-.709.189-.977.472l.621.59zm-4.53 2.28c1.69-.21 3.253-.983 4.524-2.275l-.61-.6c-1.14 1.158-2.529 1.84-4.02 2.024l.106.85zm-4.8-1.149a7.09 7.09 0 004.798 1.148l-.1-.85a6.232 6.232 0 01-4.224-1.011l-.473.713z" fill="#303142" mask="url(#a)"/></g><g clip-path="url(#clip5)"><path d="M85.09 5.755c-2.87.346-5.592 1.465-7.93 3.044a20.026 20.026 0 00-4.543 4.312l-2.533-.238c1.32-1.698 2.858-3.191 4.601-4.37 2.339-1.59 5.002-2.64 7.872-2.986a16.886 16.886 0 013.616-.054l2.332.22a16.302 16.302 0 00-3.415.072zM88.706 5.701a14.716 14.716 0 00-.201-.019l.201.02z" fill="#303142"/><path d="M84.64 48.134l-2.517-.236c-8.802-.833-15.991-8.621-16.77-18.93a23.974 23.974 0 011.72-10.88l-.01-.001a22.583 22.583 0 013.01-5.214l2.544.238a23.188 23.188 0 00-3.02 5.213h.01a23.995 23.995 0 00-1.721 10.893c.779 10.302 7.959 18.087 16.753 18.917z" fill="#303142"/><path d="M88.666 5.92c10.217.963 17.658 11.125 16.561 22.75-1.097 11.624-10.308 20.218-20.525 19.255-10.216-.962-17.657-11.124-16.56-22.748C69.237 13.552 78.448 4.958 88.665 5.92z" fill="url(#paint4_linear)" stroke="#303142" stroke-width=".428"/><path d="M103.918 28.395c1.029-10.906-5.879-20.475-15.43-21.375-9.55-.899-18.125 7.212-19.154 18.118-1.03 10.905 5.879 20.474 15.429 21.374 9.55.9 18.126-7.212 19.155-18.117z" fill="#303142"/><path d="M102.912 28.456c.992-10.508-5.583-19.72-14.686-20.578-9.102-.857-17.285 6.966-18.277 17.474-.991 10.507 5.584 19.72 14.687 20.577 9.102.858 17.285-6.965 18.276-17.473z" fill="#7885A8"/><path fill-rule="evenodd" clip-rule="evenodd" d="M90.077 26.852l-.009-.001c.166-.114.364-.177.55-.208.053-.01.105-.01.146-.01l.134.012c.115.005.23.014.345.03l2.156.202a3.505 3.505 0 00-.192-.005l-.093-.01a1.376 1.376 0 00-.612.215l.008.002a1.053 1.053 0 00-.166.135 7.123 7.123 0 01-1.153.966l-2.432-.229c.405-.28.79-.602 1.153-.965.052-.052.103-.093.165-.134zm3.597.05a3.615 3.615 0 00-.275-.025l.275.026zm-9.478 2.254l2.432.228c.478.052.966.042 1.444-.02a7.034 7.034 0 003.118-1.184l-2.432-.228a7.033 7.033 0 01-3.117 1.183 6.732 6.732 0 01-1.445.02zm-1.34-1.049l-2.431-.228a.695.695 0 01.208 0l2.39.224a.954.954 0 00-.095.002 1.35 1.35 0 01-.071.002zm.209 0a.455.455 0 00-.043-.004l.042.004zm-2.838-.176a.606.606 0 01.187-.042l2.432.229a.68.68 0 00-.187.041 8.452 8.452 0 00-2.442 1.142l-2.432-.228a8.187 8.187 0 012.442-1.142zm6.048 13.6l-2.432-.228a12.464 12.464 0 01-5.84-2.118l2.432.229a12.577 12.577 0 005.84 2.118zm-8.272-2.346l2.432.228c-.52-.384-1.04-.778-1.507-1.204a11.998 11.998 0 01-1.538-1.62c-.301-.383-.644-.83-.925-1.276h-.005c-.1-.196-.15-.43-.078-.634l-2.432-.228c-.072.207-.02.446.084.643l.006.001c.28.453.62.895.918 1.266.478.603.977 1.132 1.538 1.62.468.436.988.82 1.507 1.204zm.114-7.89a9.516 9.516 0 012.1-1.994l-2.432-.228a9.298 9.298 0 00-2.099 1.993c-.437.56-.821 1.184-1.144 1.848l2.432.229c.322-.665.707-1.288 1.143-1.848zm-1.386 2.398h.004c.073-.187.156-.374.25-.54l-2.432-.228a5.123 5.123 0 00-.246.53h-.004c-.135.332-.249.664-.343.986l2.422.228c.092-.308.216-.647.35-.976z" fill="#303142"/><path d="M86.713 11.205l-2.432-.228a6.345 6.345 0 011.33-.02l2.432.228a6.339 6.339 0 00-1.33.02z" fill="#000068"/><path fill-rule="evenodd" clip-rule="evenodd" d="M81.37 12.088l2.433.228a6.596 6.596 0 012.91-1.11l-2.432-.229a6.596 6.596 0 00-2.91 1.111zm-1.723 1.63a8.83 8.83 0 00-1.113 1.941l2.42.229a8.482 8.482 0 011.134-1.952h-.001a7.702 7.702 0 011.706-1.62l-2.431-.228a7.732 7.732 0 00-1.715 1.63zm4.478 12.998l2.412.227c-3.254-.311-5.925-3.214-6.226-7.027a8.691 8.691 0 01.634-4.028l-2.432-.229a8.967 8.967 0 00-.634 4.029c.291 3.82 2.983 6.717 6.246 7.029z" fill="#303142"/><mask id="b" fill="#fff"><path fill-rule="evenodd" clip-rule="evenodd" d="M88.04 11.186c3.846.363 6.631 4.183 6.22 8.533-.41 4.35-3.86 7.583-7.706 7.22-3.845-.362-6.63-4.182-6.22-8.532.41-4.35 3.861-7.583 7.707-7.22zm-4.476 17.098a1.05 1.05 0 00-.707-.177l-.064.013a.652.652 0 01-.123.018c-2.41.675-4.49 2.492-5.684 4.994a9.452 9.452 0 00-.593 1.526c-.072.208-.02.447.084.644.28.457.623.903.924 1.277.478.602.977 1.132 1.538 1.62.468.436.988.82 1.507 1.204 2.557 1.734 5.54 2.44 8.522 2.077 2.982-.364 5.798-1.786 8.053-4.101.458-.478.904-1.018 1.3-1.547.446-.603.893-1.246 1.267-1.952.27-.488.509-.966.717-1.475.135-.228.146-.467.042-.664a6.815 6.815 0 00-.81-1.36c-1.58-2.16-3.867-3.437-6.33-3.52-.041 0-.093 0-.145.01-.26.032-.53.146-.717.343-1.205 1.225-2.681 1.952-4.271 2.15a6.661 6.661 0 01-4.51-1.08z"/></mask><path fill-rule="evenodd" clip-rule="evenodd" d="M88.04 11.186c3.846.363 6.631 4.183 6.22 8.533-.41 4.35-3.86 7.583-7.706 7.22-3.845-.362-6.63-4.182-6.22-8.532.41-4.35 3.861-7.583 7.707-7.22zm-4.476 17.098a1.05 1.05 0 00-.707-.177l-.064.013a.652.652 0 01-.123.018c-2.41.675-4.49 2.492-5.684 4.994a9.452 9.452 0 00-.593 1.526c-.072.208-.02.447.084.644.28.457.623.903.924 1.277.478.602.977 1.132 1.538 1.62.468.436.988.82 1.507 1.204 2.557 1.734 5.54 2.44 8.522 2.077 2.982-.364 5.798-1.786 8.053-4.101.458-.478.904-1.018 1.3-1.547.446-.603.893-1.246 1.267-1.952.27-.488.509-.966.717-1.475.135-.228.146-.467.042-.664a6.815 6.815 0 00-.81-1.36c-1.58-2.16-3.867-3.437-6.33-3.52-.041 0-.093 0-.145.01-.26.032-.53.146-.717.343-1.205 1.225-2.681 1.952-4.271 2.15a6.661 6.661 0 01-4.51-1.08z" fill="url(#paint5_linear)"/><path d="M94.26 19.719l.427.04-.427-.04zm-6.22-8.533l-.04.427.04-.427zM86.555 26.94l.04-.426-.04.426zm-6.22-8.532l-.426-.04.427.04zm2.523 9.7l-.053-.425-.008.001-.01.002.071.422zm.707.177l-.242.353.005.003.237-.356zm-.771-.164l.088.419-.088-.42zm-.123.018v-.428h-.059l-.056.016.115.412zm-5.684 4.994l.383.192.003-.007-.386-.185zm-.593 1.526l.404.142.004-.01.004-.012-.412-.12zm.084.644l-.38.2.007.012.008.012.365-.224zm.924 1.277l.336-.266-.002-.003-.334.27zm1.538 1.62l.293-.313-.006-.006-.006-.004-.28.323zm1.507 1.204l-.254.345.007.005.007.005.24-.355zm8.522 2.077l-.052-.425.052.425zm8.053-4.101l.307.298.003-.002-.31-.296zm1.3-1.547l.343.256v-.001l-.344-.255zm1.267-1.952l-.374-.208-.004.007.378.2zm.717-1.475l-.368-.218-.016.027-.012.03.396.161zm.042-.664l-.392.172.006.014.007.014.379-.2zm-.81-1.36l-.346.253.003.004.342-.257zm-6.33-3.52l.015-.428h-.014v.428zm-.145.01l.051.426.017-.002.016-.003-.084-.42zm-.717.343l.305.3.006-.005-.311-.295zm-4.271 2.15l.05.425h.003l-.053-.426zm6.613-9.605c.428-4.535-2.477-8.61-6.606-8.999l-.08.853c3.562.335 6.226 3.9 5.833 8.065l.853.08zm-8.173 7.607c4.13.389 7.745-3.072 8.173-7.607l-.853-.08c-.393 4.165-3.677 7.17-7.24 6.834l-.08.853zm-6.606-9c-.428 4.536 2.477 8.61 6.606 9l.08-.853c-3.562-.335-6.226-3.9-5.833-8.066l-.853-.08zm8.173-7.606c-4.129-.389-7.745 3.072-8.173 7.607l.853.08c.393-4.165 3.677-7.17 7.24-6.834l.08-.853zm-5.17 17.772a.623.623 0 01.411.105l.483-.707a1.478 1.478 0 00-1-.248l.105.85zm-.03.007l.046-.01-.14-.844c-.032.005-.063.012-.083.016l.177.838zm-.21.027c.088 0 .181-.021.21-.027l-.177-.838a3.556 3.556 0 01-.046.01h-.005.017v.856zm-5.299 4.75c1.148-2.402 3.134-4.127 5.414-4.765l-.231-.825c-2.543.712-4.713 2.62-5.956 5.222l.773.369zm-.567 1.462c.139-.477.338-1.003.564-1.454l-.766-.383a9.88 9.88 0 00-.62 1.597l.822.24zm.05.325c-.073-.14-.076-.25-.058-.303l-.808-.283c-.127.361-.026.729.109.985l.757-.4zm.88 1.207c-.298-.37-.627-.799-.894-1.232l-.73.448c.296.48.652.944.957 1.322l.667-.538zm1.485 1.566c-.539-.47-1.02-.98-1.483-1.563l-.671.532c.493.621 1.01 1.17 1.592 1.677l.562-.646zm1.48 1.183c-.522-.387-1.022-.757-1.469-1.173l-.584.626c.489.456 1.028.854 1.545 1.236l.509-.69zm8.216 1.995c-2.88.351-5.759-.33-8.23-2.005l-.48.709c2.642 1.791 5.728 2.523 8.813 2.147l-.103-.85zm7.799-3.974c-2.192 2.25-4.92 3.624-7.8 3.974l.104.85c3.086-.375 5.99-1.846 8.31-4.227l-.614-.597zm1.262-1.504a16.353 16.353 0 01-1.265 1.506l.619.593c.471-.493.93-1.046 1.333-1.587l-.687-.512zm1.233-1.897c-.36.678-.791 1.302-1.233 1.897l.687.51c.452-.608.914-1.272 1.303-2.006l-.757-.4zm.699-1.436c-.2.49-.43.951-.695 1.43l.749.414c.276-.498.523-.991.739-1.52l-.793-.324zm.059-.302c.025.047.039.127-.031.246l.737.436c.199-.337.235-.734.052-1.082l-.758.4zm-.774-1.303a6.4 6.4 0 01.76 1.275l.785-.344a7.255 7.255 0 00-.86-1.445l-.685.514zm-6-3.349c2.317.078 4.486 1.28 5.997 3.345l.69-.506c-1.648-2.254-4.051-3.607-6.659-3.695l-.029.856zm-.048.003l.015-.002h.047v-.857c-.038 0-.13-.001-.23.019l.168.84zm-.49.217a.769.769 0 01.457-.212l-.102-.85c-.339.04-.708.19-.977.473l.622.589zm-4.53 2.28c1.69-.21 3.253-.983 4.524-2.274l-.61-.601c-1.14 1.159-2.528 1.84-4.019 2.024l.106.85zm-4.799-1.149a7.09 7.09 0 004.797 1.149l-.1-.85a6.232 6.232 0 01-4.223-1.012l-.474.713z" fill="#303142" mask="url(#b)"/></g><g clip-path="url(#clip6)"><path d="M66.426 51.867c-2.869.346-5.591 1.464-7.93 3.043a20.027 20.027 0 00-4.542 4.312l-2.534-.238c1.321-1.698 2.859-3.19 4.602-4.37 2.338-1.59 5.002-2.64 7.87-2.985a16.89 16.89 0 013.617-.054l2.332.219a16.302 16.302 0 00-3.415.073zM70.042 51.813a13.408 13.408 0 00-.2-.02l.2.02zM65.976 94.246l-2.516-.237c-8.803-.833-15.992-8.62-16.771-18.93a23.973 23.973 0 011.72-10.88l-.01-.001a22.587 22.587 0 013.01-5.214l2.545.238a23.185 23.185 0 00-3.02 5.213h.01a23.995 23.995 0 00-1.722 10.894c.78 10.301 7.96 18.086 16.754 18.917z" fill="#303142"/><path d="M70.002 52.032c10.217.962 17.658 11.124 16.56 22.749-1.096 11.624-10.307 20.218-20.524 19.255-10.217-.962-17.658-11.123-16.56-22.748 1.096-11.625 10.307-20.218 20.524-19.256z" fill="url(#paint6_linear)" stroke="#303142" stroke-width=".428"/><path d="M85.254 74.506c1.029-10.905-5.879-20.475-15.429-21.374-9.55-.9-18.126 7.212-19.155 18.117C49.641 82.154 56.55 91.724 66.1 92.623c9.55.9 18.126-7.212 19.155-18.117z" fill="#303142"/><path d="M84.249 74.567c.991-10.507-5.584-19.72-14.687-20.577-9.102-.858-17.285 6.965-18.276 17.473-.992 10.508 5.584 19.72 14.686 20.578 9.103.857 17.285-6.966 18.277-17.474z" fill="#7885A8"/><path fill-rule="evenodd" clip-rule="evenodd" d="M71.412 72.964l-.01-.001c.167-.114.364-.177.551-.208.052-.01.104-.01.146-.01l.133.012c.115.004.23.014.345.03l2.156.202a3.611 3.611 0 00-.192-.005l-.093-.009a1.376 1.376 0 00-.612.215l.009.001a1.058 1.058 0 00-.166.135 7.114 7.114 0 01-1.154.966l-2.432-.229c.406-.28.79-.602 1.154-.965.051-.052.103-.093.165-.134zm3.597.05a3.565 3.565 0 00-.276-.025l.276.026zm-9.478 2.254l2.432.228c.478.052.966.042 1.444-.02a7.032 7.032 0 003.118-1.184l-2.432-.229a7.032 7.032 0 01-3.118 1.184 6.73 6.73 0 01-1.444.02zm-1.34-1.049l-2.432-.228a.695.695 0 01.208 0l2.39.224a.954.954 0 00-.095.002 1.353 1.353 0 01-.071.002zm.208 0a.45.45 0 00-.043-.004l.043.004zm-.406.052a.679.679 0 01.187-.041L61.75 74c-.063 0-.125.02-.187.041a8.185 8.185 0 00-2.442 1.142l2.431.229a8.45 8.45 0 012.442-1.142zm3.616 13.372l-2.431-.228a12.464 12.464 0 01-5.84-2.118c-.52-.384-1.04-.768-1.507-1.204a11.992 11.992 0 01-1.538-1.62c-.3-.37-.64-.813-.919-1.266h-.006c-.104-.198-.156-.437-.083-.644l2.432.228c-.072.204-.023.438.077.633h.006c.28.447.623.893.924 1.277.478.603.977 1.132 1.538 1.62.468.426.988.82 1.507 1.204a12.578 12.578 0 005.84 2.118zm-8.157-10.236a9.514 9.514 0 012.1-1.994l-2.432-.228a9.296 9.296 0 00-2.1 1.993 10.39 10.39 0 00-1.143 1.848l2.431.229c.323-.665.707-1.288 1.144-1.848zm-1.386 2.398h.003c.073-.187.156-.374.25-.54l-2.432-.228a5.09 5.09 0 00-.245.53h-.004c-.135.332-.25.664-.343.986l2.421.228c.093-.308.216-.647.35-.976z" fill="#303142"/><path d="M68.047 57.317l-2.432-.228a6.345 6.345 0 011.33-.021l2.432.228a6.345 6.345 0 00-1.33.021z" fill="#000068"/><path fill-rule="evenodd" clip-rule="evenodd" d="M62.705 58.2l2.431.228a6.597 6.597 0 012.91-1.111l-2.432-.228a6.597 6.597 0 00-2.91 1.11zm-1.724 1.63a8.827 8.827 0 00-1.114 1.94l2.422.23a8.48 8.48 0 011.132-1.953 7.702 7.702 0 011.706-1.62l-2.432-.228a7.73 7.73 0 00-1.714 1.63zm4.478 12.998l2.412.227c-3.254-.311-5.925-3.214-6.226-7.027a8.691 8.691 0 01.634-4.029l-2.432-.228a8.968 8.968 0 00-.634 4.028c.291 3.821 2.983 6.718 6.246 7.03z" fill="#303142"/><mask id="c" fill="#fff"><path fill-rule="evenodd" clip-rule="evenodd" d="M69.375 57.298c3.846.362 6.63 4.182 6.22 8.532-.41 4.35-3.86 7.583-7.706 7.221-3.846-.362-6.63-4.182-6.22-8.532.41-4.35 3.86-7.583 7.706-7.22zm-4.477 17.098a1.051 1.051 0 00-.706-.177l-.065.013a.65.65 0 01-.122.018c-2.411.675-4.49 2.492-5.685 4.994a9.452 9.452 0 00-.592 1.526c-.073.208-.02.447.083.644.28.457.624.903.925 1.277.478.602.977 1.132 1.538 1.62.468.436.987.82 1.507 1.204 2.556 1.734 5.539 2.44 8.521 2.076 2.983-.363 5.799-1.785 8.054-4.1.457-.478.904-1.018 1.299-1.547.447-.603.894-1.246 1.268-1.952.27-.488.51-.966.717-1.475.135-.228.145-.467.041-.664a6.826 6.826 0 00-.81-1.36c-1.58-2.16-3.866-3.437-6.329-3.52-.041 0-.093 0-.145.01-.26.032-.53.146-.717.343-1.206 1.225-2.681 1.952-4.271 2.15a6.66 6.66 0 01-4.51-1.08z"/></mask><path fill-rule="evenodd" clip-rule="evenodd" d="M69.375 57.298c3.846.362 6.63 4.182 6.22 8.532-.41 4.35-3.86 7.583-7.706 7.221-3.846-.362-6.63-4.182-6.22-8.532.41-4.35 3.86-7.583 7.706-7.22zm-4.477 17.098a1.051 1.051 0 00-.706-.177l-.065.013a.65.65 0 01-.122.018c-2.411.675-4.49 2.492-5.685 4.994a9.452 9.452 0 00-.592 1.526c-.073.208-.02.447.083.644.28.457.624.903.925 1.277.478.602.977 1.132 1.538 1.62.468.436.987.82 1.507 1.204 2.556 1.734 5.539 2.44 8.521 2.076 2.983-.363 5.799-1.785 8.054-4.1.457-.478.904-1.018 1.299-1.547.447-.603.894-1.246 1.268-1.952.27-.488.51-.966.717-1.475.135-.228.145-.467.041-.664a6.826 6.826 0 00-.81-1.36c-1.58-2.16-3.866-3.437-6.329-3.52-.041 0-.093 0-.145.01-.26.032-.53.146-.717.343-1.206 1.225-2.681 1.952-4.271 2.15a6.66 6.66 0 01-4.51-1.08z" fill="url(#paint7_linear)"/><path d="M75.595 65.83l.427.04-.427-.04zm-6.22-8.532l-.04.426.04-.426zM67.89 73.051l.04-.426-.04.426zm-6.22-8.532l-.426-.04.426.04zm2.523 9.7l-.053-.425-.009.001-.008.002.07.422zm.707.177l-.242.353.005.004.236-.357zm-.772-.164l.088.419-.088-.42zm-.122.018v-.428h-.06l-.056.016.116.412zm-5.685 4.994l.383.192.004-.007-.387-.185zm-.592 1.526l.404.142.004-.01.003-.012-.411-.12zm.083.644l-.379.2.007.012.007.012.365-.224zm.925 1.277l.335-.266-.002-.003-.333.27zm1.538 1.62l.292-.314-.005-.004-.006-.005-.281.323zm1.507 1.204l-.255.344.007.006.008.005.24-.355zm8.521 2.076l-.052-.425.052.425zm8.054-4.1l.307.298.002-.002-.309-.297zm1.299-1.547l.343.256v-.001l-.343-.255zm1.268-1.952l-.375-.208-.004.007.379.2zm.717-1.475l-.369-.218-.016.027-.011.03.396.161zm.041-.664l-.392.172.006.014.008.013.379-.2zm-.81-1.36l-.346.253.003.004.343-.257zm-6.329-3.52l.015-.428h-.015v.428zm-.145.01l.05.426.017-.002.017-.003-.084-.42zm-.717.343l.305.3.005-.005-.31-.295zm-4.271 2.15l.05.425h.002l-.052-.426zm6.612-9.605c.428-4.535-2.477-8.61-6.606-9l-.08.853c3.562.336 6.227 3.9 5.834 8.066l.853.08zm-8.172 7.607c4.129.388 7.745-3.073 8.172-7.607l-.852-.08c-.393 4.165-3.678 7.17-7.24 6.834l-.08.853zm-6.606-9c-.428 4.535 2.477 8.61 6.606 9l.08-.853c-3.562-.336-6.227-3.9-5.834-8.066l-.852-.08zm8.172-7.606c-4.128-.389-7.744 3.072-8.172 7.607l.852.08c.394-4.165 3.678-7.17 7.24-6.834l.08-.853zm-5.17 17.772a.622.622 0 01.412.105l.483-.707a1.478 1.478 0 00-1.001-.248l.106.85zm-.03.007l.047-.01-.14-.844a1.793 1.793 0 00-.083.016l.176.838zm-.21.028c.089 0 .182-.022.21-.028l-.176-.838-.029.006a.645.645 0 01-.018.003h-.004.017v.856zm-5.298 4.75c1.147-2.403 3.134-4.128 5.413-4.766l-.23-.825c-2.543.712-4.714 2.62-5.956 5.222l.773.369zm-.568 1.461c.14-.477.338-1.003.564-1.454l-.766-.384a9.88 9.88 0 00-.62 1.598l.822.24zm.051.325c-.073-.14-.077-.25-.058-.303l-.808-.283c-.127.361-.026.729.108.985l.758-.4zm.88 1.207c-.299-.37-.628-.799-.894-1.232l-.73.448c.295.48.652.944.957 1.322l.666-.538zm1.485 1.566c-.54-.47-1.02-.98-1.484-1.563l-.67.532c.492.621 1.01 1.17 1.592 1.677l.562-.646zm1.48 1.183c-.523-.387-1.022-.757-1.469-1.174l-.584.627c.489.456 1.028.854 1.544 1.235l.51-.688zm8.216 1.995c-2.88.351-5.759-.33-8.23-2.005l-.48.709c2.642 1.791 5.728 2.522 8.813 2.147l-.103-.85zm7.798-3.974c-2.191 2.25-4.919 3.624-7.799 3.974l.104.85c3.085-.375 5.99-1.846 8.309-4.227l-.614-.597zm1.263-1.504a16.354 16.354 0 01-1.265 1.506l.618.593a17.21 17.21 0 001.333-1.587l-.686-.512zm1.233-1.897c-.36.678-.792 1.302-1.234 1.897l.688.51c.452-.608.913-1.272 1.302-2.006l-.757-.4zm.698-1.435c-.2.488-.43.95-.695 1.428l.75.415c.275-.498.522-.991.738-1.52l-.793-.323zm.06-.303c.025.047.039.127-.032.246l.737.436c.2-.337.235-.734.052-1.082l-.757.4zm-.775-1.303c.298.396.56.814.761 1.275l.785-.344a7.246 7.246 0 00-.86-1.445l-.686.514zm-6-3.349c2.318.078 4.487 1.28 5.997 3.345l.691-.506c-1.648-2.254-4.052-3.607-6.66-3.695l-.028.856zm-.047.003l.015-.002h.046v-.857c-.037 0-.13-.001-.23.019l.169.84zm-.49.217a.77.77 0 01.457-.212l-.102-.85c-.339.04-.708.19-.977.473l.621.589zm-4.53 2.28c1.69-.21 3.253-.983 4.524-2.274l-.61-.601c-1.14 1.159-2.528 1.84-4.02 2.024l.106.85zm-4.8-1.148A7.09 7.09 0 0069.46 75.9l-.1-.85a6.233 6.233 0 01-4.224-1.012l-.473.713z" fill="#303142" mask="url(#c)"/></g><g opacity=".15" filter="url(#filter13_f)"><path d="M168.245 42.635c3.094-2.476 6.441-2.847 7.734-1.585.31.302 1.081.92 1.475 2.486.395 1.565-.747 4.578-3.087 6.45-2.704 2.164-5.964 2.7-7.156 1.773 0 0-1.1-1.203-1.421-1.547-1.28-1.703-.638-5.102 2.455-7.577z" fill="#303142"/><path d="M168.33 42.542c2.916-2.332 6.402-3.068 7.83-1.283 1.426 1.783.363 5.573-2.553 7.906-2.916 2.332-6.435 2.778-7.863.995-1.425-1.785-.329-5.285 2.586-7.618z" fill="#A9B2CA"/><path d="M168.412 42.762c2.572-2.056 5.637-2.72 6.881-1.164 1.243 1.553.288 4.88-2.283 6.935-2.572 2.057-5.664 2.465-6.907.911-1.242-1.555-.261-4.623 2.309-6.682z" fill="#303142"/><path d="M169.081 43.567c2.352-1.882 5.019-2.684 6.073-1.367 1.053 1.317.096 4.255-2.256 6.137-2.353 1.882-5.114 2.34-6.168 1.024-1.056-1.318-.002-3.912 2.351-5.794z" fill="#A9B2CA"/><path d="M168.416 43.031l.452.436c1.709-1.39 4.354-2.95 6.311-1.667-1.707-2.16-5.557.272-6.763 1.231z" fill="url(#paint8_linear)"/><path d="M169.586 45.365l.537.605v.008l-.537-.605v-.002-.002-.004z" fill="#303142"/><path d="M169.586 45.365l.537.605v.008l-.537-.605v-.002-.002-.004zM168.125 47.64l-.564-.582c.01.01.022.017.036.02a.135.135 0 00.049-.001.201.201 0 00.056-.019.36.36 0 00.058-.039l.562.584a.257.257 0 01-.114.055.135.135 0 01-.049 0 .144.144 0 01-.034-.019z" fill="#303142"/><path d="M167.762 47.02l.561.583a.154.154 0 01-.025.02c-.008.005-.016.011-.025.015l-.024.011c-.009.004-.017.006-.025.008l-.564-.582.025-.007.025-.011.027-.016.025-.021z" fill="#303142"/><path d="M167.66 47.075l.564.582-.012.004-.012.001h-.025l-.564-.582H167.648a.028.028 0 01.012-.005zM167.609 47.079l.564.581-.014-.002c-.004-.003-.008-.003-.012-.005l-.012-.006a.038.038 0 01-.01-.009l-.564-.581.01.008.012.007.012.004c.006 0 .01 0 .014.003zM167.81 46.98l.561.584-.046.04-.563-.584.048-.04zM169.59 45.37l.537.605.052.075-.536-.605-.053-.075z" fill="#303142"/><path d="M172.723 42.942l.497.64a.728.728 0 01-.096.067.528.528 0 01-.195.063.233.233 0 01-.085-.007 1.963 1.963 0 00-.632-.052 2.948 2.948 0 00-.702.14 4.155 4.155 0 00-.733.322 4.917 4.917 0 00-1.347 1.107c-.184.216-.339.44-.467.665a3.334 3.334 0 00-.291.677 2.164 2.164 0 00-.098.648.34.34 0 01-.055.181.61.61 0 01-.147.175l-.562-.583a.725.725 0 00.152-.175.475.475 0 00.041-.094.318.318 0 00.015-.089c.001-.206.036-.426.106-.65.068-.224.171-.453.302-.68.132-.226.291-.453.477-.671a5.229 5.229 0 011.364-1.123c.247-.14.497-.25.739-.33.245-.08.483-.13.707-.148.226-.018.442-.005.634.044a.29.29 0 00.085.006.54.54 0 00.195-.067.737.737 0 00.096-.066z" fill="#303142"/><path d="M172.723 42.941l.497.64c-.017.014-.034.028-.052.04l-.054.033c-.019.01-.038.019-.054.024l-.054.02-.499-.64a.613.613 0 00.056-.018c.019-.007.037-.017.056-.027a.576.576 0 00.054-.032l.05-.04zM172.505 43.059l.499.638-.028.008-.029.005-.027.003-.026.001-.501-.636c.008 0 .016 0 .026-.002a.124.124 0 00.027-.003.534.534 0 01.029-.005l.03-.01z" fill="#303142"/><path d="M172.397 43.074l.501.636h-.014c-.006 0-.008 0-.012-.002l-.012-.003-.012-.002a1.676 1.676 0 00-.193-.039c-.032-.005-.066-.008-.099-.011-.034-.003-.069-.004-.104-.005l-.501-.633a1.81 1.81 0 01.397.053c.005 0 .009.003.013.003l.012.002h.012l.012.001zM171.947 43.015l.501.632a2.086 2.086 0 00-.195.002c-.067.004-.135.01-.202.018-.068.01-.137.02-.209.037a2.775 2.775 0 00-.211.052l-.508-.622a4.8 4.8 0 01.214-.055c.069-.016.141-.028.209-.038.069-.01.136-.016.204-.022.067-.004.134-.004.197-.004z" fill="#303142"/><path d="M171.125 43.134l.506.622a3.49 3.49 0 00-.393.136 4.513 4.513 0 00-1.178.714 4.626 4.626 0 00-.635.624 4.262 4.262 0 00-.47.675l-.542-.593a3.7 3.7 0 01.219-.343 4.93 4.93 0 01.905-.967 4.811 4.811 0 011.191-.728c.134-.057.266-.104.397-.14z" fill="#303142"/><path d="M168.413 45.312l.542.593a3.557 3.557 0 00-.194.405 3.042 3.042 0 00-.127.401l-.551-.587a3.125 3.125 0 01.224-.608c.031-.068.068-.136.106-.204zM168.081 46.124l.551.587c-.009.042-.019.085-.026.127-.008.043-.013.085-.018.126a1.063 1.063 0 00-.01.124c-.002.04-.003.081-.002.122l-.001.016v.016c0 .007-.003.01-.003.017l-.002.016-.558-.585.005-.017c.002-.004.002-.012.002-.016l.003-.016v-.016a1.655 1.655 0 01.016-.246l.02-.126a.915.915 0 01.023-.13zM168.01 46.69l.558.585-.007.026c-.002.008-.007.018-.009.028l-.011.028-.015.028-.56-.585c.004-.01.011-.018.015-.028l.013-.028c.005-.01.007-.019.011-.029l.005-.026zM167.964 46.8l.56.585-.03.048a.4.4 0 01-.037.046.636.636 0 01-.086.085l-.561-.584.046-.041a.592.592 0 00.108-.14zM172.777 42.899l.497.64-.052.043-.499-.64.054-.043z" fill="#303142"/><path d="M172.855 42.696l.494.642a.056.056 0 01.014.031.12.12 0 01-.017.08.248.248 0 01-.03.047c-.002.004-.006.008-.01.012-.005.003-.007.008-.011.011-.004.004-.006.008-.011.01l-.012.01-.497-.642.013-.01.01-.01.011-.012.01-.012a.17.17 0 00.03-.046.131.131 0 00.017-.083.073.073 0 00-.011-.028z" fill="#303142"/><path d="M172.855 42.696l.495.642a.049.049 0 01.007.015l.006.016c.002.006.001.012.001.019 0 .006 0 .012-.002.018l-.495-.643.003-.018c0-.006 0-.012-.002-.018-.002-.006-.002-.01-.006-.017-.001-.006-.005-.01-.007-.014zM172.867 42.764l.495.642-.003.012a.028.028 0 01-.004.012l-.005.012-.006.012-.497-.642a.075.075 0 01.007-.012c.002-.004.004-.008.004-.012l.004-.012a.02.02 0 00.005-.013z" fill="#303142"/><path d="M172.85 42.811l.497.643-.007.01-.006.01-.006.01a.074.074 0 01-.009.01.05.05 0 01-.01.011l-.011.012c-.004.004-.006.008-.01.01l-.013.01-.497-.642.013-.01.01-.01.011-.012.01-.012.009-.01c.002-.002.004-.008.008-.01a.04.04 0 01.007-.01c.002-.002.002-.006.004-.01z" fill="#303142"/><path d="M167.542 47.009c-.016-.251.015-.523.09-.801.074-.277.193-.562.351-.846a5.11 5.11 0 01.579-.837 6.113 6.113 0 011.692-1.394c.309-.17.616-.302.918-.394.302-.095.599-.148.876-.16.28-.012.541.019.773.095.004 0 .006.003.01.005l.008.004.008.006.006.007a.057.057 0 01.015.03.084.084 0 01.001.04.131.131 0 01-.016.044.187.187 0 01-.032.047l-.01.012-.011.012a1.492 1.492 0 00-.01.01l-.013.01-.052.043a.59.59 0 01-.098.066.54.54 0 01-.195.067.243.243 0 01-.086-.006 1.92 1.92 0 00-.633-.045 2.937 2.937 0 00-.707.15c-.243.079-.49.19-.739.328a4.942 4.942 0 00-.728.502c-.236.196-.45.405-.636.622a4.475 4.475 0 00-.477.67 3.422 3.422 0 00-.302.68c-.07.227-.105.445-.106.65a.359.359 0 01-.015.09.53.53 0 01-.193.268l-.048.04a.274.274 0 01-.122.059.14.14 0 01-.051-.004.08.08 0 01-.036-.027.016.016 0 01-.004-.008c-.002-.003-.002-.007-.004-.009l-.001-.01-.002-.016z" fill="#A9B2CA" stroke="#303142" stroke-width=".061" stroke-miterlimit="10"/><path d="M170.141 46.88l-.547-.602-.008-.009-.008-.01-.007-.01c-.002-.005-.006-.007-.008-.011a.397.397 0 01-.039-.394.664.664 0 01.076-.138.466.466 0 00.043-.074.297.297 0 00.022-.07.148.148 0 000-.064.12.12 0 00-.021-.051l.537.605a.118.118 0 01.021.051c.003.02.003.041 0 .063a.39.39 0 01-.062.145.568.568 0 00-.104.276.373.373 0 00.014.132.422.422 0 00.06.124c.001.004.005.006.007.01.002.005.006.007.008.011l.008.01c.002 0 .006.003.008.007z" fill="#303142"/><path d="M169.643 45.446l.537.605c.005.008.011.016.015.026.004.01.005.021.007.031.002.01.001.023.001.035 0 .012-.003.024-.005.036l-.539-.605a.152.152 0 00.005-.036.134.134 0 00-.001-.035.115.115 0 00-.007-.03.084.084 0 00-.013-.027z" fill="#303142"/><path d="M169.661 45.572l.539.605-.005.022a.188.188 0 01-.007.023l-.008.022-.011.022-.541-.605.011-.022.009-.023.006-.022a.116.116 0 00.007-.022zM169.626 45.663l.54.605-.006.01-.006.01-.007.01c-.002.004-.004.008-.008.01l-.011.016c-.004.006-.006.012-.011.016-.004.005-.006.012-.01.015-.005.007-.007.013-.009.017l-.541-.603a.06.06 0 01.011-.017c.004-.006.006-.012.011-.015.004-.006.006-.012.01-.016a.092.092 0 00.011-.016.031.031 0 01.009-.012 2098006810.434 2098006810.434 0 01.013-.024l.004-.006zM169.555 45.774l.541.603a.193.193 0 00-.017.036c-.007.012-.011.025-.016.037-.004.012-.009.024-.011.036a.16.16 0 00-.009.036l-.543-.603a.239.239 0 01.009-.036c.005-.012.007-.025.013-.037.005-.012.009-.024.016-.036.004-.012.011-.024.017-.036z" fill="#303142"/><path d="M169.5 45.919l.543.603c-.005.028-.01.056-.009.083a.365.365 0 00.031.16.48.48 0 00.043.074c.002.005.006.007.008.01.002.005.006.007.007.011l.008.01c.002.005.006.007.008.009l-.547-.603-.008-.009c-.001-.004-.005-.006-.007-.01l-.008-.01c-.002-.005-.006-.007-.008-.01a.408.408 0 01-.066-.154c-.006-.026-.007-.055-.008-.081.003-.027.006-.055.013-.083zM171.594 44.557l.519.627a.401.401 0 00-.478-.12.593.593 0 00-.174.102.654.654 0 00-.118.122.47.47 0 00-.066.137c-.013.048-.017.1-.013.158.005.057.017.12.037.19l-.53-.617a.974.974 0 01-.035-.19.496.496 0 01.015-.16.481.481 0 01.066-.139.566.566 0 01.12-.124.629.629 0 01.174-.105.462.462 0 01.176-.033c.057 0 .114.014.166.038a.458.458 0 01.141.114z" fill="#303142"/><path d="M171.593 44.557l.52.627a.731.731 0 00-.061-.063.297.297 0 00-.07-.045.339.339 0 00-.077-.028.352.352 0 00-.079-.013l-.519-.625a.376.376 0 01.157.042.53.53 0 01.07.045c.02.017.041.038.059.06z" fill="#303142"/><path d="M171.307 44.41l.52.625-.035-.001a1.008 1.008 0 00-.069.008c-.013.001-.025.005-.037.009l-.52-.623c.012-.004.024-.005.037-.009l.037-.005c.012-.002.024-.001.034-.003.011-.002.023-.001.033 0zM171.164 44.426l.52.623a.951.951 0 00-.058.019 1.15 1.15 0 00-.112.06.397.397 0 00-.054.04c-.017.014-.031.028-.046.042-.015.013-.027.027-.04.041a.365.365 0 00-.034.044l-.028.044-.524-.62.028-.045c.011-.014.021-.03.034-.044l.04-.041c.015-.014.029-.028.046-.041a.576.576 0 01.11-.074c.019-.01.038-.02.058-.027a.557.557 0 01.06-.02z" fill="#303142"/><path d="M170.791 44.717l.524.619a.352.352 0 00-.025.056l-.009.03-.007.03-.526-.616.007-.03.009-.03c.005-.01.007-.02.011-.029.005-.01.009-.02.016-.03zM170.747 44.836l.526.617a.53.53 0 00-.008.07c-.001.025.001.052.002.078.003.027.006.055.011.084.006.029.015.06.024.09l-.53-.617a.854.854 0 01-.022-.09c-.005-.029-.01-.057-.011-.084a.679.679 0 01-.002-.077l.01-.07zM169.284 47.538l-.557-.594a.105.105 0 00.058.032.198.198 0 00.077 0 .324.324 0 00.088-.029.578.578 0 00.092-.058l.555.595a.55.55 0 01-.089.058.266.266 0 01-.166.026.117.117 0 01-.058-.03z" fill="#303142"/><path d="M169.04 46.889l.555.595a.619.619 0 01-.039.03l-.04.023a.166.166 0 01-.039.017.143.143 0 01-.039.01l-.557-.595.039-.013c.012-.005.027-.011.039-.019l.04-.023c.016-.006.028-.015.041-.025z" fill="#303142"/><path d="M168.883 46.971l.557.596a.067.067 0 01-.02.003.077.077 0 01-.021.002l-.018.001h-.018l-.558-.594h.037c.006 0 .012-.002.02-.004.006 0 .013-.002.021-.004z" fill="#303142"/><path d="M168.807 46.978l.557.594a.071.071 0 01-.022-.005l-.02-.007c-.006-.002-.012-.006-.018-.01-.006-.005-.012-.009-.016-.015l-.557-.594.016.015c.006.004.012.009.018.01l.02.008a.071.071 0 00.022.004zM169.278 46.695l.551.597-.234.192-.555-.595.238-.194zM170.773 45.158l.53.617.085.288-.532-.62-.083-.285zM172.369 44.154l.512.634-.268.222-.515-.633.271-.223zM172.488 43.836l.507.637a.111.111 0 01.024.066.243.243 0 01-.013.08.36.36 0 01-.047.087.48.48 0 01-.078.08l-.511-.634a.466.466 0 00.08-.083.31.31 0 00.062-.169.1.1 0 00-.024-.064z" fill="#303142"/><path d="M172.488 43.837l.507.636c.006.006.009.015.013.023a.106.106 0 01.008.027c.001.008.003.018.003.028l-.003.03-.509-.636c.002-.01.002-.02.002-.03a.087.087 0 00-.003-.029.088.088 0 00-.007-.027c0-.008-.006-.016-.011-.023z" fill="#303142"/><path d="M172.509 43.943l.509.637a.04.04 0 01-.005.018l-.006.02c-.003.006-.005.014-.009.02l-.009.02-.509-.636c.004-.006.006-.015.011-.02l.008-.02.007-.02a.057.057 0 00.003-.019z" fill="#303142"/><path d="M172.484 44.022l.509.636-.02.034c-.008.012-.014.022-.025.034-.009.012-.019.022-.029.032l-.034.031-.511-.635a.24.24 0 00.033-.031.23.23 0 00.03-.034l.025-.033c.009-.01.015-.022.022-.034zM170.856 45.444l.533.617a.887.887 0 01-.004.576c-.034.09-.083.178-.149.264a1.552 1.552 0 01-.246.248 1.516 1.516 0 01-.322.204 1.01 1.01 0 01-.312.09.736.736 0 01-.284-.021.624.624 0 01-.24-.13l-.553-.6a.58.58 0 00.24.128c.089.026.184.03.286.02.102-.014.207-.045.315-.094.107-.05.217-.12.324-.208.1-.082.184-.165.25-.253a.972.972 0 00.15-.266.817.817 0 00.054-.28.944.944 0 00-.042-.295z" fill="#303142"/><path d="M170.855 45.443l.533.617c.011.04.022.078.029.115.006.04.011.076.014.113a.672.672 0 01.001.11.542.542 0 01-.014.107l-.536-.617a.657.657 0 00.014-.108.672.672 0 00-.001-.11 2.157 2.157 0 00-.013-.112 1.359 1.359 0 00-.027-.115zM170.882 45.89l.537.617-.015.063a.756.756 0 01-.07.181l-.541-.616.031-.06.024-.06.02-.06.014-.065z" fill="#303142"/><path d="M170.793 46.134l.54.615c-.019.034-.038.07-.062.104a1.132 1.132 0 01-.078.101c-.03.034-.059.068-.095.099a1.642 1.642 0 01-.501.33c-.043.017-.086.03-.129.04l-.551-.605a1.05 1.05 0 00.261-.101 1.39 1.39 0 00.267-.18c.039-.032.077-.064.111-.097.033-.034.067-.067.094-.101.03-.034.055-.068.081-.103.021-.032.043-.066.062-.102zM169.915 46.82l.551.606-.074.014-.071.008c-.025 0-.047.002-.07.001a.74.74 0 01-.067-.004l-.553-.601a.739.739 0 00.21-.008l.074-.016z" fill="#303142"/><path d="M169.631 46.844l.553.602a.77.77 0 01-.189-.049.64.64 0 01-.166-.105l-.553-.6c.026.022.051.041.077.058a.697.697 0 00.278.094zM172.172 46.122l-.528-.625.002.002.002.002.002.003.004.002c.01.006.024.01.038.011a.131.131 0 00.047-.007.313.313 0 00.05-.023c.016-.01.031-.023.046-.037.086-.089.156-.182.212-.274.053-.092.093-.186.114-.277a.7.7 0 00-.061-.52l.516.632a.752.752 0 01.067.523c-.022.09-.059.183-.113.275a1.44 1.44 0 01-.208.272.227.227 0 01-.095.06.137.137 0 01-.047.007.085.085 0 01-.039-.011l-.004-.002c-.002 0-.002-.002-.002-.002l-.002-.003-.001-.008z" fill="#303142"/><path d="M172.098 44.378l.515.632a.815.815 0 01.078.23.6.6 0 01.009.121c-.002.04-.005.083-.012.124l-.52-.633a.589.589 0 00.012-.124.771.771 0 00-.037-.237.466.466 0 00-.045-.113z" fill="#303142"/><path d="M172.17 44.852l.52.633-.015.069a1.773 1.773 0 01-.02.068l-.027.069-.032.07-.524-.631a1.116 1.116 0 00.063-.14l.023-.069a.989.989 0 01.012-.069zM172.07 45.13l.524.631c-.013.026-.031.054-.046.08-.017.026-.034.054-.053.08l-.061.08-.07.077-.023.021-.025.018a.106.106 0 01-.027.013.123.123 0 01-.027.01l-.528-.627a.118.118 0 00.027-.01c.009-.004.019-.007.027-.013l.025-.018a.113.113 0 00.023-.021c.025-.026.049-.054.072-.08a1.933 1.933 0 00.119-.16c.013-.027.03-.053.043-.08zM171.73 45.514l.528.627-.01.002-.01.002H172.217l-.528-.628H171.71l.01-.001.01-.002z" fill="#303142"/><path d="M171.69 45.517l.528.627c-.004 0-.007 0-.011-.002-.004 0-.006-.003-.01-.003l-.008-.004c-.002-.002-.006-.002-.008-.005l-.004-.002c-.002 0-.002-.002-.002-.002l-.002-.002-.002-.002-.527-.625.002.002.002.002.001.002c.003 0 .002.002.004.002.002.002.007.003.008.005.002.002.007.002.008.004l.011.002h.01z" fill="#303142"/><path d="M170.657 44.304c.111-.092.223-.164.331-.217a1.15 1.15 0 01.32-.106.78.78 0 01.299.007.682.682 0 01.265.124l.274-.225a.459.459 0 01.194-.094.2.2 0 01.085.003.115.115 0 01.062.036.115.115 0 01.027.066.215.215 0 01-.013.083.38.38 0 01-.128.171l-.271.224c.042.08.07.165.08.25a.78.78 0 01-.019.27.977.977 0 01-.115.278 1.397 1.397 0 01-.212.274.227.227 0 01-.095.06.137.137 0 01-.047.007.082.082 0 01-.039-.011c-.002 0-.001-.002-.004-.003-.002 0-.001-.002-.004-.002-.002 0-.001-.002-.004-.002-.002 0-.001-.002-.001-.004l-.092-.117a.106.106 0 01-.021-.045.164.164 0 01-.003-.055.275.275 0 01.055-.125.634.634 0 00.08-.156.467.467 0 00.008-.305.434.434 0 00-.21-.243.394.394 0 00-.166-.038.496.496 0 00-.176.034.6.6 0 00-.174.104.753.753 0 00-.12.125.432.432 0 00-.066.138.544.544 0 00-.015.16c.004.057.015.12.035.19l.083.286c.029.103.044.2.043.297a.85.85 0 01-.053.28c-.034.091-.085.18-.151.267a1.696 1.696 0 01-.574.46 1.1 1.1 0 01-.315.094.708.708 0 01-.286-.02.647.647 0 01-.24-.127l-.238.194a.544.544 0 01-.096.062.304.304 0 01-.092.028.169.169 0 01-.079-.007.112.112 0 01-.056-.042.135.135 0 01-.02-.072.337.337 0 01.07-.177.466.466 0 01.08-.083l.234-.192a.675.675 0 01-.043-.24.8.8 0 01.036-.248c.025-.085.062-.168.114-.251.049-.082.113-.164.187-.243a.229.229 0 01.052-.043.234.234 0 01.056-.027.158.158 0 01.051-.008c.016 0 .03.003.042.011a544835169.497 544835169.497 0 00.012.013l.004.004.053.075a.117.117 0 01.02.051.19.19 0 010 .064.298.298 0 01-.022.07.462.462 0 01-.043.074.666.666 0 00-.076.138.423.423 0 00-.02.27c.01.043.031.085.059.124a.382.382 0 00.12.112c.046.026.097.04.152.04a.421.421 0 00.168-.032.692.692 0 00.285-.223.379.379 0 00.062-.137.54.54 0 00.013-.158 1.108 1.108 0 00-.033-.188l-.071-.253a1.155 1.155 0 01-.048-.31.782.782 0 01.05-.278.935.935 0 01.146-.256 1.28 1.28 0 01.244-.255z" fill="#A9B2CA" stroke="#303142" stroke-width=".061" stroke-miterlimit="10"/><path d="M173.745 43.67l.498.65c.002.002.004.004.004.006s.002.004.004.006.002.005.004.009l.002.008c.057.246.061.52.013.808a3.393 3.393 0 01-.297.907c-.15.31-.347.626-.591.928a5.83 5.83 0 01-.859.864 5.72 5.72 0 01-1.012.666c-.341.175-.679.3-1.005.378a3.061 3.061 0 01-.914.083 1.857 1.857 0 01-.749-.206l-.004-.002s-.002-.003-.004-.003-.002-.002-.004-.004l-.004-.004-.574-.586.004.004.004.002c.002 0 .002.003.004.003l.004.002c.214.114.469.181.749.2.284.02.595-.012.919-.09.328-.08.67-.21 1.015-.388a6.068 6.068 0 001.899-1.554c.247-.306.451-.624.603-.938a3.52 3.52 0 00.307-.913c.052-.29.051-.564-.005-.81l-.002-.008-.003-.008-.004-.007-.002-.004z" fill="#303142"/><path d="M173.744 43.67l.499.65.003.007c0 .002.002.004.004.006l.004.008.002.008a1.93 1.93 0 01.041.56c-.004.068-.012.135-.02.202l-.507-.65a2.417 2.417 0 00.029-.399c0-.063-.004-.126-.013-.187a1.441 1.441 0 00-.029-.178l-.001-.009-.004-.008-.004-.006c-.002 0-.004-.002-.004-.004zM173.768 44.462l.507.651a3.005 3.005 0 01-.122.505 3.384 3.384 0 01-.22.522l-.519-.645a3.906 3.906 0 00.224-.526 3.31 3.31 0 00.075-.256c.025-.085.042-.168.055-.25z" fill="#303142"/><path d="M173.416 45.497l.519.645c-.076.15-.162.3-.26.448a5.29 5.29 0 01-.325.442 6.125 6.125 0 01-.386.427 6.178 6.178 0 01-.957.778 5.472 5.472 0 01-.522.301 4.355 4.355 0 01-1.025.375l-.567-.602a4.472 4.472 0 001.035-.386 5.774 5.774 0 001.05-.69 6.39 6.39 0 00.844-.839 5.49 5.49 0 00.332-.447c.096-.152.184-.301.262-.452zM169.891 48.311l.567.602a3.292 3.292 0 01-.776.078 2.234 2.234 0 01-.235-.02l-.572-.592a2.582 2.582 0 00.745-.015 3.63 3.63 0 00.271-.053z" fill="#303142"/><path d="M168.875 48.378l.572.592a1.959 1.959 0 01-.469-.125 1.101 1.101 0 01-.142-.07l-.004-.001c-.002 0-.002-.002-.004-.005l-.004-.004-.574-.586a544835169.497 544835169.497 0 01.008.007l.004.002.004.002a1.705 1.705 0 00.609.188z" fill="#303142"/><path d="M173.258 44.105a.254.254 0 01.007-.086c.007-.03.02-.06.036-.09a.584.584 0 01.145-.173l.069-.056a.249.249 0 01.065-.041.253.253 0 01.063-.02.135.135 0 01.057.001.08.08 0 01.042.024l.006.006a.016.016 0 01.004.008c.002.003.002.007.004.009.002.002.002.006.002.01.055.246.055.52.005.81a3.44 3.44 0 01-.308.912c-.154.315-.355.63-.603.938a6.067 6.067 0 01-.874.876c-.334.273-.679.5-1.024.678a4.541 4.541 0 01-1.016.388 3.05 3.05 0 01-.919.091 1.845 1.845 0 01-.748-.2l-.008-.005-.006-.006-.006-.006-.006-.007a.077.077 0 01-.011-.032c-.002-.013.001-.027.003-.041a.135.135 0 01.018-.044c.008-.016.019-.03.03-.046l.008-.01a.11.11 0 01.011-.01l.01-.01.011-.01.081-.066a.562.562 0 01.193-.104.28.28 0 01.168-.001c.185.073.396.11.626.11a2.71 2.71 0 00.742-.11c.261-.073.533-.183.804-.327a5.123 5.123 0 001.502-1.229c.199-.24.365-.489.497-.737.13-.246.223-.494.279-.728.05-.237.066-.46.041-.666z" fill="#A9B2CA" stroke="#303142" stroke-width=".061" stroke-miterlimit="10"/></g><g opacity=".15" filter="url(#filter14_f)"><path d="M30.08 92.432c3.202 4.112 3.632 8.521 1.95 10.2-.403.403-1.23 1.405-3.295 1.897-2.066.492-6.009-1.063-8.43-4.173-2.8-3.593-3.447-7.891-2.207-9.443 0 0 1.6-1.426 2.059-1.842 2.261-1.654 6.72-.75 9.923 3.361z" fill="#303142"/><path d="M30.2 92.545c3.017 3.876 3.924 8.475 1.552 10.321-2.37 1.845-7.337.381-10.354-3.495-3.017-3.876-3.542-8.512-1.172-10.358 2.372-1.845 6.957-.341 9.974 3.532z" fill="#A9B2CA"/><path d="M29.91 92.65c2.66 3.417 3.478 7.461 1.411 9.069-2.064 1.609-6.422.295-9.082-3.123-2.66-3.418-3.143-7.492-1.078-9.1 2.066-1.606 6.086-.262 8.748 3.153z" fill="#303142"/><path d="M28.839 93.515c2.434 3.127 3.443 6.648 1.692 8.011-1.75 1.363-5.597.053-8.032-3.073-2.434-3.127-2.99-6.768-1.24-8.13 1.752-1.366 5.145.065 7.58 3.192z" fill="#A9B2CA"/><path d="M29.556 92.65l-.581.587c1.798 2.271 3.803 5.778 2.082 8.329 2.87-2.208-.26-7.313-1.501-8.916z" fill="url(#paint9_linear)"/><path d="M26.465 94.149l-.805.695h-.005-.005l.805-.696h.01z" fill="#303142"/><path d="M26.465 94.149l-.805.695h-.005-.005l.805-.696h.01zM23.5 92.187l.774-.731a.084.084 0 00-.026.047.18.18 0 000 .064.266.266 0 00.023.073c.013.025.03.052.05.078l-.776.728a.339.339 0 01-.071-.15.176.176 0 010-.065.185.185 0 01.026-.044z" fill="#303142"/><path d="M24.321 91.72l-.777.729a.28.28 0 01-.025-.034.22.22 0 01-.02-.033l-.015-.032c-.005-.011-.007-.022-.009-.033l.774-.731c.003.01.008.021.01.032l.014.033.02.036c.01.01.018.022.028.033z" fill="#303142"/><path d="M24.25 91.586l-.775.731c-.002-.005-.002-.01-.005-.016l-.002-.016a.895.895 0 00.002-.032l.774-.732v.016l-.001.016.002.017c.002.005.005.01.005.016zM24.245 91.519l-.774.731.003-.019.006-.015.009-.016a.047.047 0 01.011-.013l.775-.731c-.003.005-.009.007-.011.012l-.01.016c-.002.005-.002.01-.005.016 0 .008 0 .013-.004.019zM24.372 91.784l-.777.729-.051-.061.777-.732.05.064zM26.46 94.154l-.805.695-.1.068.805-.696.1-.067z" fill="#303142"/><path d="M29.598 98.316l-.851.642a.96.96 0 01-.086-.126.711.711 0 01-.056-.131.572.572 0 01-.023-.127.313.313 0 01.01-.112c.07-.252.096-.532.08-.83a3.88 3.88 0 00-.173-.926 5.448 5.448 0 00-.41-.97 6.434 6.434 0 00-1.433-1.79 5.56 5.56 0 00-.867-.626 4.379 4.379 0 00-.885-.395 2.855 2.855 0 00-.85-.14.48.48 0 01-.238-.075.802.802 0 01-.227-.198l.777-.728a.862.862 0 00.227.203.618.618 0 00.123.056c.04.013.08.02.117.021.27.004.56.055.853.15.293.094.592.234.89.41.294.177.59.39.874.639.283.248.555.53.806.847.253.317.47.643.648.967a5.5 5.5 0 01.42.977c.1.323.161.637.183.932.019.298-.002.581-.07.833a.385.385 0 00-.01.112.716.716 0 00.085.258.98.98 0 00.085.127z" fill="#303142"/><path d="M29.599 98.316l-.851.642a.645.645 0 01-.05-.069c-.015-.024-.03-.046-.043-.071a.565.565 0 01-.032-.071c-.01-.025-.016-.05-.023-.07l.848-.646a.79.79 0 00.058.147c.012.025.027.05.042.072.015.022.033.044.05.066zM29.448 98.028l-.848.645-.01-.038-.006-.038c-.002-.01-.001-.024-.004-.035v-.034l.845-.648.001.034c0 .011.002.025.004.035l.006.038.012.04z" fill="#303142"/><path d="M29.43 97.885l-.846.648.001-.019c0-.008 0-.01.004-.015 0-.006.003-.011.003-.016 0-.006.003-.011.003-.016a.955.955 0 00.03-.125 2.1 2.1 0 00.024-.127c.008-.043.012-.088.017-.13.005-.046.007-.092.009-.137l.84-.648a2.305 2.305 0 01-.025.27l-.022.127a.955.955 0 01-.03.124c0 .006-.003.01-.003.016 0 .005-.003.01-.003.016l-.001.016v.016zM29.516 97.295l-.84.648a2.787 2.787 0 000-.257 4.51 4.51 0 00-.02-.266c-.012-.089-.024-.18-.044-.275a3.505 3.505 0 00-.065-.279l.827-.657c.025.095.048.19.068.282.02.092.035.186.047.275.012.092.018.18.025.269.004.089.003.177.002.26z" fill="#303142"/><path d="M29.373 96.211l-.827.655a4.641 4.641 0 00-.172-.52 5.807 5.807 0 00-.545-1.047 6.054 6.054 0 00-.374-.515 6.303 6.303 0 00-1.243-1.188 5.805 5.805 0 00-.445-.288l.789-.701c.151.087.3.185.447.293a6.45 6.45 0 011.256 1.208 6.245 6.245 0 01.937 1.579c.072.177.132.351.177.524zM26.556 92.607l-.79.701a4.84 4.84 0 00-.529-.262 3.838 3.838 0 00-.525-.173l.782-.715a4.052 4.052 0 01.795.306c.09.041.178.09.267.143zM25.494 92.155l-.782.715c-.056-.013-.111-.026-.167-.037-.056-.01-.112-.018-.165-.026a1.729 1.729 0 00-.163-.015c-.053-.002-.107-.005-.16-.005h-.022l-.021-.002c-.008 0-.013-.003-.021-.003-.008 0-.016-.004-.022-.004l.78-.723c.008.003.016.003.021.006a.058.058 0 00.021.004c.006 0 .014 0 .022.004h.02c.055 0 .108.003.161.008.054.005.107.01.163.018.056.008.109.018.165.028.058.006.114.019.17.032zM24.752 92.053l-.78.723c-.01-.003-.024-.006-.034-.01-.01-.003-.024-.009-.037-.012l-.037-.015a.253.253 0 01-.037-.02l.78-.726.037.02.036.018.037.015c.01 0 .021.003.035.007zM24.607 91.99l-.78.726a.766.766 0 01-.179-.142l-.053-.061.777-.73c.018.023.036.043.053.062.018.02.039.04.06.056.02.017.04.034.062.049a.465.465 0 00.06.04zM29.654 98.388l-.851.643-.056-.07.85-.645.057.072z" fill="#303142"/><path d="M29.92 98.494l-.854.64a.07.07 0 01-.04.016.16.16 0 01-.052-.002.32.32 0 01-.13-.075c-.005-.006-.01-.009-.016-.014-.005-.006-.01-.009-.012-.014l-.013-.017.854-.642c.005.005.007.01.012.016l.013.014.015.014.016.014c.02.017.039.032.06.04.018.012.039.019.058.022a.164.164 0 00.05.002.094.094 0 00.038-.014z" fill="#303142"/><path d="M29.92 98.494l-.854.64a.173.173 0 01-.04.017.074.074 0 01-.025.001c-.008 0-.016 0-.024-.004l.853-.64c.008.001.016.004.024.004s.016.001.024-.001c.009-.002.014-.002.022-.007l.02-.01zM29.83 98.508l-.854.64-.015-.003a.037.037 0 01-.016-.006l-.016-.006a2.216 2.216 0 01-.016-.01l.854-.641.015.008c.006.003.01.006.016.006l.016.007c.005.002.01.005.016.005z" fill="#303142"/><path d="M29.767 98.485l-.854.642-.013-.009-.013-.008-.013-.009-.013-.011a.07.07 0 01-.015-.014l-.015-.014c-.005-.006-.01-.009-.013-.014l-.013-.017.854-.642c.005.005.007.011.012.017l.013.013.015.015.016.014.013.01c.002.004.01.007.013.012l.013.009c.002.003.008.003.013.006z" fill="#303142"/><path d="M24.34 91.432c.33-.018.686.028 1.051.132a4.95 4.95 0 011.107.476c.368.209.737.469 1.09.776a8.003 8.003 0 011.804 2.25c.217.409.387.816.503 1.215.119.398.184.79.195 1.154.01.368-.035.711-.14 1.015 0 .005-.002.008-.005.013-.003.002-.003.008-.006.01l-.008.01-.009.008a.074.074 0 01-.04.02.108.108 0 01-.052 0 .168.168 0 01-.058-.021c-.02-.012-.041-.023-.062-.043l-.015-.014-.016-.014-.013-.014c-.005-.006-.01-.011-.012-.017l-.056-.07a.782.782 0 01-.085-.129.716.716 0 01-.059-.131.584.584 0 01-.026-.127.313.313 0 01.01-.112 2.53 2.53 0 00.07-.833 3.865 3.865 0 00-.184-.932 5.6 5.6 0 00-.42-.977 6.47 6.47 0 00-.648-.967 7.032 7.032 0 00-.806-.847 5.916 5.916 0 00-.874-.639 4.488 4.488 0 00-.89-.41 2.907 2.907 0 00-.853-.15.462.462 0 01-.117-.02.689.689 0 01-.242-.146.862.862 0 01-.108-.114l-.05-.064a.334.334 0 01-.076-.161.182.182 0 01.005-.067.102.102 0 01.037-.047.021.021 0 01.011-.005c.003-.002.009-.002.011-.004.006-.003.008-.003.014-.003.005 0 .016-.002.021-.001z" fill="#A9B2CA" stroke="#303142" stroke-width=".061" stroke-miterlimit="10"/><path d="M24.462 94.852l.803-.709.011-.01c.006-.002.009-.008.014-.01.006-.002.009-.008.014-.01.006-.003.009-.008.014-.01a.575.575 0 01.164-.076.546.546 0 01.355.032.86.86 0 01.18.102.462.462 0 00.189.089c.03.006.059.005.083 0a.17.17 0 00.068-.026l-.805.695a.151.151 0 01-.068.027.29.29 0 01-.083-.001c-.03-.004-.06-.016-.092-.028a.69.69 0 01-.097-.056.742.742 0 00-.36-.142.481.481 0 00-.175.017.574.574 0 00-.165.075c-.005.003-.008.008-.013.01-.006.003-.009.008-.014.01-.006.003-.009.008-.014.01 0 .003-.003.009-.009.011z" fill="#303142"/><path d="M26.359 94.222l-.805.695c-.011.007-.022.015-.036.02-.013.005-.027.007-.04.009-.014.002-.03.001-.046 0-.016 0-.032-.004-.048-.007l.805-.698c.016.003.032.007.048.007.016.001.03.002.046 0a.213.213 0 00.04-.01.145.145 0 00.036-.016z" fill="#303142"/><path d="M26.192 94.244l-.805.698c-.008-.003-.018-.004-.029-.007l-.029-.01c-.01-.002-.018-.008-.029-.011l-.029-.015.805-.7c.011.005.021.011.03.014.01.006.018.009.028.012l.03.01.028.009zM26.074 94.196l-.806.7-.013-.008-.013-.009-.013-.008c-.005-.003-.01-.006-.013-.012l-.02-.014c-.008-.006-.016-.009-.021-.014-.008-.006-.016-.01-.02-.015l-.022-.011.803-.701a.058.058 0 01.02.014c.008.006.016.009.021.014.008.006.016.01.021.015a.222.222 0 00.02.014c.006.003.011.006.016.011l.016.01.016.008.008.006zM25.928 94.1l-.802.702c-.016-.01-.032-.018-.048-.024-.015-.009-.031-.015-.047-.02-.016-.007-.031-.013-.047-.016-.016-.007-.032-.01-.048-.013l.803-.704a.307.307 0 01.047.013c.016.006.032.01.048.018.016.006.031.013.047.021.016.006.032.015.047.024z" fill="#303142"/><path d="M25.738 94.025l-.802.704a.519.519 0 00-.217-.005.655.655 0 00-.103.03.625.625 0 00-.099.055c-.005.003-.008.008-.014.01-.005.003-.008.008-.014.01-.005.003-.008.008-.013.01-.006.003-.009.008-.012.01l.803-.708.012-.01c.005-.003.008-.008.013-.01.006-.003.009-.008.014-.01.006-.003.009-.008.014-.01a.625.625 0 01.099-.055.458.458 0 01.103-.03c.035-.007.073-.008.108-.009.034.004.072.009.108.018zM27.494 96.803l-.834.672a.528.528 0 00.205-.395.603.603 0 00-.038-.232.79.79 0 00-.131-.23.849.849 0 00-.16-.158.61.61 0 00-.178-.088.597.597 0 00-.208-.02c-.075.005-.159.02-.25.045l.82-.687c.092-.025.173-.037.251-.042a.613.613 0 01.553.271.84.84 0 01.134.231.606.606 0 01.04.232c0 .075-.02.15-.052.218a.587.587 0 01-.152.183z" fill="#303142"/><path d="M27.493 96.802l-.833.673a.783.783 0 00.084-.08.377.377 0 00.06-.09.455.455 0 00.04-.1.472.472 0 00.017-.104l.83-.673a.484.484 0 01-.057.206.655.655 0 01-.06.091.543.543 0 01-.081.077z" fill="#303142"/><path d="M27.692 96.428l-.831.673.002-.045a.31.31 0 00-.02-.14l.828-.673.01.048.007.049c.002.016.001.032.003.045a.228.228 0 010 .043zM27.673 96.24l-.828.673c-.007-.025-.014-.05-.023-.076-.01-.025-.02-.05-.035-.074-.012-.025-.027-.05-.042-.074a1.192 1.192 0 00-.107-.133c-.017-.02-.035-.037-.053-.054a.468.468 0 00-.057-.045c-.018-.015-.04-.026-.057-.038l.822-.678c.021.011.04.023.06.037.018.014.04.029.057.046.018.017.036.033.054.053a1.193 1.193 0 01.107.133 1.057 1.057 0 01.076.151c.012.03.019.054.026.079z" fill="#303142"/><path d="M27.297 95.744l-.823.678-.037-.018-.037-.015a5.741 5.741 0 00-.08-.022l.821-.681.04.01c.013.003.026.009.04.012l.037.015a.268.268 0 01.039.02zM27.141 95.684l-.82.682a.525.525 0 00-.094-.013c-.032-.001-.067 0-.101.001-.035.004-.073.008-.11.014-.039.006-.08.018-.12.03l.82-.687c.041-.012.082-.02.12-.027.038-.006.075-.013.11-.014.035 0 .07-.002.102 0 .032.004.064.008.093.014zM23.613 93.713l.79-.723a.145.145 0 00-.043.076.264.264 0 00-.002.102.436.436 0 00.038.117c.02.04.044.08.075.12l-.793.72a.744.744 0 01-.075-.118.348.348 0 01-.03-.218.15.15 0 01.04-.076z" fill="#303142"/><path d="M24.47 93.403l-.792.72a.815.815 0 01-.038-.053l-.03-.052a.226.226 0 01-.021-.052.185.185 0 01-.014-.051l.793-.723a.6.6 0 00.016.052c.007.016.014.035.024.052l.03.052c.007.022.02.038.033.055z" fill="#303142"/><path d="M24.365 93.195l-.793.723a.095.095 0 01-.004-.027.09.09 0 01-.002-.027c0-.008-.002-.016-.001-.024l.001-.025.79-.722-.001.024c0 .008 0 .016.002.024 0 .008.002.016.004.027 0 .008.002.016.004.027z" fill="#303142"/><path d="M24.357 93.095l-.79.723a.37.37 0 01.016-.055.112.112 0 01.014-.024.072.072 0 01.02-.02l.79-.723a.15.15 0 00-.02.02l-.014.024-.009.026a.098.098 0 00-.007.03zM24.722 93.72l-.795.714-.249-.31.793-.72.251.316zM26.717 95.713l-.82.687-.38.106.823-.69.377-.103zM28.01 97.83l-.843.662-.287-.356.841-.667.29.361zM28.426 97.991l-.846.656a.144.144 0 01-.087.031.312.312 0 01-.106-.018.472.472 0 01-.113-.064.626.626 0 01-.105-.104l.844-.661a.565.565 0 00.107.106.403.403 0 00.222.085.13.13 0 00.084-.03z" fill="#303142"/><path d="M28.426 97.991l-.846.656a.132.132 0 01-.066.026.2.2 0 01-.078 0l.847-.659c.013.004.026.004.04.005a.157.157 0 00.037-.004c.011-.002.025-.004.035-.009.011 0 .022-.007.03-.015z" fill="#303142"/><path d="M28.285 98.017l-.846.659c-.008 0-.016-.003-.024-.006s-.015-.007-.026-.01c-.008-.003-.018-.006-.026-.011-.008-.004-.019-.01-.026-.012l.846-.659c.008.006.018.009.026.015l.026.011.026.01c.008.003.016.003.024.003z" fill="#303142"/><path d="M28.182 97.983l-.846.658c-.016-.008-.029-.017-.044-.026-.016-.011-.029-.02-.044-.034a.289.289 0 01-.041-.039c-.013-.014-.029-.028-.041-.045l.843-.661c.013.017.026.03.041.045a.305.305 0 00.044.039c.016.011.028.023.044.034.013.011.029.02.044.029zM26.34 95.818l-.82.69c-.136.039-.265.057-.391.054a1.152 1.152 0 01-.711-.27 2.017 2.017 0 01-.323-.328 2.024 2.024 0 01-.262-.426c-.064-.142-.1-.28-.113-.412a.968.968 0 01.033-.374.826.826 0 01.174-.314l.798-.717a.77.77 0 00-.172.314.983.983 0 00-.03.376c.015.135.055.273.118.415.063.143.153.288.268.43.106.133.213.245.328.333.11.091.228.158.347.203.118.046.24.073.369.076.123.005.252-.013.387-.05z" fill="#303142"/><path d="M26.341 95.817l-.82.69c-.052.013-.104.027-.152.035-.051.009-.1.014-.148.018a.871.871 0 01-.145-.001.831.831 0 01-.14-.02l.82-.695c.048.01.093.018.141.02a.872.872 0 00.145.001c.048-.003.1-.009.148-.015.048-.008.1-.02.151-.033zM25.753 95.844l-.821.695a.843.843 0 01-.24-.078 1.035 1.035 0 01-.08-.038l.82-.7.078.04a.962.962 0 00.079.034l.08.027.084.02z" fill="#303142"/><path d="M25.434 95.722l-.819.7c-.044-.026-.091-.052-.135-.083a1.453 1.453 0 01-.132-.105 2.156 2.156 0 01-.554-.79 1.393 1.393 0 01-.051-.172l.805-.714a1.421 1.421 0 00.13.346 2.038 2.038 0 00.23.353c.043.053.084.103.128.148.043.044.087.09.13.126a1.654 1.654 0 00.267.191zM24.547 94.556l-.806.714c-.007-.032-.013-.065-.017-.097-.004-.033-.008-.062-.01-.094 0-.033-.002-.062 0-.091 0-.03.002-.06.006-.089l.8-.716a.988.988 0 00.027.373zM24.52 94.182l-.801.717a.921.921 0 01.129-.361.71.71 0 01.079-.103l.798-.718a1.26 1.26 0 00-.077.102.926.926 0 00-.101.234c-.013.044-.02.087-.028.13zM25.425 97.536l.831-.683-.003.002-.002.003-.003.002c0 .003-.003.003-.003.005a.102.102 0 00-.016.05c0 .02.001.04.008.063a.362.362 0 00.03.065c.012.022.03.042.048.061.115.115.237.209.357.284.12.072.243.126.362.155.12.03.24.04.355.03a.898.898 0 00.331-.1l-.84.666a.934.934 0 01-.335.103.996.996 0 01-.355-.024c-.12-.03-.24-.08-.36-.152a1.866 1.866 0 01-.355-.279.35.35 0 01-.048-.06.365.365 0 01-.03-.066.175.175 0 01-.007-.062.11.11 0 01.016-.05c0-.003.002-.003.003-.006 0-.002.002-.002.002-.002l.003-.003.01-.002z" fill="#303142"/><path d="M27.72 97.469l-.84.667c-.05.024-.1.046-.15.063a1.084 1.084 0 01-.155.036.77.77 0 01-.159.009 1.119 1.119 0 01-.162-.018l.841-.672c.056.01.11.018.163.017.053.003.107 0 .158-.008a.985.985 0 00.155-.037.6.6 0 00.15-.057z" fill="#303142"/><path d="M27.095 97.556l-.841.673-.09-.02-.09-.029-.09-.036-.091-.044.839-.678a1.496 1.496 0 00.273.117c.03.004.059.01.09.017zM26.73 97.42l-.838.677c-.034-.017-.07-.04-.105-.06-.033-.024-.07-.047-.104-.072a2.696 2.696 0 01-.103-.082c-.034-.029-.067-.062-.1-.093-.01-.012-.02-.02-.028-.031a6.504 6.504 0 01-.023-.033.14.14 0 01-.017-.036.186.186 0 01-.012-.035l.834-.683c.002.01.007.024.012.035.005.01.01.024.017.036l.022.033a.155.155 0 00.029.03c.033.034.069.065.102.096a2.5 2.5 0 00.207.16c.037.017.071.04.108.058zM26.232 96.966l-.834.683-.002-.013-.002-.014v-.013l.001-.013.834-.684v.014l-.001.013.002.014.002.013z" fill="#303142"/><path d="M26.23 96.913l-.834.683c0-.005 0-.008.003-.013 0-.005.003-.008.003-.013a.02.02 0 01.006-.01c.003-.003.003-.009.006-.011 0-.003.003-.003.003-.005 0-.003.003-.003.003-.003l.002-.002.003-.003.831-.683-.002.002-.003.003-.003.002c0 .003-.003.003-.003.005-.003.003-.003.008-.006.01-.002.003-.003.009-.006.011 0 .003-.003.008-.003.014v.013z" fill="#303142"/><path d="M27.842 95.576c.12.147.212.296.28.438.07.145.114.286.134.424.021.137.015.268-.014.393a.898.898 0 01-.168.346l.291.363c.033.042.06.086.08.13a.51.51 0 01.04.128.263.263 0 01-.005.112.158.158 0 01-.049.08.146.146 0 01-.087.034.272.272 0 01-.11-.018.537.537 0 01-.222-.17l-.29-.362a.933.933 0 01-.685.072 1.301 1.301 0 01-.363-.156 1.92 1.92 0 01-.357-.284c-.018-.02-.036-.039-.048-.06a.362.362 0 01-.03-.066.175.175 0 01-.007-.062c0-.019.007-.037.015-.05 0-.003.003-.003.003-.005 0-.003.003-.003.003-.006 0-.002.003-.002.003-.005s.003-.002.006-.002l.155-.12a.154.154 0 01.06-.026.208.208 0 01.072-.002.445.445 0 01.163.074.824.824 0 00.204.108.601.601 0 00.401.015.56.56 0 00.323-.272.51.51 0 00.053-.217.647.647 0 00-.041-.232.8.8 0 00-.134-.231.976.976 0 00-.162-.16.56.56 0 00-.18-.089.676.676 0 00-.211-.022 1.228 1.228 0 00-.251.042l-.377.104a1.363 1.363 0 01-.39.052 1.105 1.105 0 01-.37-.075 1.384 1.384 0 01-.347-.203 2.191 2.191 0 01-.595-.763 1.443 1.443 0 01-.118-.415.935.935 0 01.03-.377.86.86 0 01.172-.313l-.251-.317a.682.682 0 01-.08-.127.395.395 0 01-.035-.122.223.223 0 01.01-.104.15.15 0 01.057-.072.185.185 0 01.095-.025.439.439 0 01.231.096.568.568 0 01.108.106l.248.311a.898.898 0 01.316-.053c.107 0 .219.018.327.052.111.035.219.085.328.154.107.067.213.152.316.25a.343.343 0 01.09.143.215.215 0 01.01.068.098.098 0 01-.016.055c0 .003-.003.005-.005.005l-.006.005-.006.006-.005.005-.1.068a.151.151 0 01-.068.026.286.286 0 01-.175-.032.603.603 0 01-.097-.058.863.863 0 00-.18-.102.543.543 0 00-.355-.032.509.509 0 00-.313.232.396.396 0 00-.054.2.553.553 0 00.038.22.886.886 0 00.289.38c.054.04.112.067.178.084a.667.667 0 00.208.02c.075-.005.159-.017.248-.04l.334-.09c.146-.039.28-.057.41-.057.128.003.247.025.363.07.116.045.226.11.334.197.117.083.225.192.331.326z" fill="#A9B2CA" stroke="#303142" stroke-width=".061" stroke-miterlimit="10"/><path d="M28.623 99.647l-.864.645c-.003.002-.006.005-.008.005-.003-.001-.006.002-.009.005-.002.002-.005.002-.01.004l-.011.003a2.732 2.732 0 01-1.064.003 4.45 4.45 0 01-1.187-.406 6.357 6.357 0 01-1.21-.793 7.71 7.71 0 01-1.122-1.146 7.513 7.513 0 01-.859-1.342 5.915 5.915 0 01-.479-1.329 4.026 4.026 0 01-.094-1.204c.033-.368.128-.698.285-.98 0-.003.003-.006.003-.006s.003-.002.003-.005.003-.003.006-.005l.005-.005.78-.745-.005.005c-.003.003-.003.003-.003.005 0 .003-.003.003-.003.006 0 .002-.003.002-.003.005a2.43 2.43 0 00-.277.981c-.03.374.006.782.105 1.21.098.433.263.885.491 1.342.23.458.522.918.875 1.36.352.441.736.833 1.137 1.164.398.331.811.604 1.223.81a4.61 4.61 0 001.194.42 2.7 2.7 0 001.066.008l.01-.003.012-.004c.002-.003.005-.003.008-.005 0 0 .003-.003.005-.003z" fill="#303142"/><path d="M28.623 99.647l-.864.644c-.003.003-.005.005-.008.005s-.006.002-.008.005c-.003.003-.006.002-.011.005l-.011.002a2.515 2.515 0 01-.739.045c-.088-.007-.175-.019-.263-.031l.864-.655a3.061 3.061 0 00.77.032c.081-.007.16-.02.235-.035.003 0 .008-.003.01-.002.003 0 .006-.003.012-.005l.008-.005c0-.003.003-.005.006-.005zM27.58 99.664l-.864.656a4.127 4.127 0 01-1.002-.302 5.053 5.053 0 01-.343-.165l.857-.672a5.037 5.037 0 001.024.407c.111.035.22.058.329.076z" fill="#303142"/><path d="M26.225 99.183l-.857.672a5.71 5.71 0 01-.585-.35 6.95 6.95 0 01-.575-.435 7.85 7.85 0 01-1.95-2.478 5.724 5.724 0 01-.475-1.355l.802-.737c.05.22.114.445.195.673.081.229.18.461.296.697a7.513 7.513 0 00.889 1.392 8.375 8.375 0 001.088 1.125c.19.16.385.309.583.444.197.129.393.247.59.352zM22.586 94.498l-.802.735a4.352 4.352 0 01-.09-.695 3.387 3.387 0 01.032-.636l.788-.741a3.365 3.365 0 00-.026.636 4.032 4.032 0 00.098.7z" fill="#303142"/><path d="M22.515 93.161l-.789.742a2.635 2.635 0 01.172-.614c.027-.063.057-.124.091-.18 0-.003.003-.006.003-.006s.003-.003.003-.005c0-.003.003-.003.006-.005l.005-.005.78-.745-.005.005c-.003.002-.003.002-.003.005s-.002.003-.003.005l-.002.006a2.357 2.357 0 00-.258.797z" fill="#303142"/><path d="M28.06 99a.324.324 0 01.112.01c.04.01.079.028.118.049a.76.76 0 01.224.195l.074.091c.023.028.04.055.052.085a.344.344 0 01.026.085.176.176 0 01-.003.075.115.115 0 01-.032.054l-.009.008a.02.02 0 01-.01.005c-.003.002-.009.002-.012.005-.002.002-.008.002-.013.002a2.75 2.75 0 01-1.066-.008 4.551 4.551 0 01-1.194-.42 6.636 6.636 0 01-1.223-.81 7.958 7.958 0 01-1.137-1.164 7.846 7.846 0 01-.874-1.36 5.945 5.945 0 01-.492-1.342 4.007 4.007 0 01-.104-1.21 2.43 2.43 0 01.276-.98c.003-.004.003-.009.006-.011l.009-.008.008-.008.008-.007a.118.118 0 01.044-.014.186.186 0 01.053.005c.019.003.04.012.058.024.02.011.039.025.06.04l.013.011.012.014.013.014.013.014.086.108a.745.745 0 01.134.255.38.38 0 01-.002.222c-.1.242-.152.519-.155.821-.005.305.039.634.13.978.093.344.232.704.417 1.063a6.723 6.723 0 001.59 1.996c.312.266.637.49.961.668.322.175.646.301.953.38.31.07.604.093.875.065z" fill="#A9B2CA" stroke="#303142" stroke-width=".061" stroke-miterlimit="10"/></g><g opacity=".15" filter="url(#filter15_df)"><path d="M56.739-3.85c3.7 5.236 3.978 10.678 1.816 12.645-.52.472-1.592 1.657-4.158 2.143-2.566.487-7.322-1.648-10.12-5.608C41.04.756 40.49-4.562 42.101-6.399c0 0 2.049-1.66 2.635-2.146 2.873-1.903 8.301-.54 12.002 4.696z" fill="#303142"/><path d="M56.88-3.704c3.487 4.934 4.34 10.637 1.32 12.77-3.017 2.132-9.037.05-12.524-4.884-3.486-4.935-3.867-10.66-.85-12.795 3.02-2.13 8.568-.023 12.055 4.909z" fill="#A9B2CA"/><path d="M56.517-3.592c3.074 4.351 3.85 9.366 1.218 11.225-2.628 1.86-7.908-.003-10.982-4.355-3.074-4.351-3.435-9.385-.807-11.244 2.632-1.855 7.494.025 10.57 4.374z" fill="#303142"/><path d="M55.153-2.59c2.814 3.981 3.852 8.365 1.623 9.94-2.229 1.575-6.88-.253-9.694-4.234-2.814-3.98-3.289-8.485-1.06-10.06 2.23-1.579 6.318.373 9.131 4.354z" fill="#A9B2CA"/><path d="M56.082-3.612l-.746.689c2.08 2.893 4.343 7.316 2.084 10.352 3.653-2.549.096-9-1.338-11.04z" fill="url(#paint10_linear)"/><path d="M54.028 1.313l.76-.505h-.003-.003l-.003-.001h-.004a.427.427 0 00-.08.085c-.012.018-.023.037-.032.056-.008.023-.02.045-.026.067l-.763.506a.339.339 0 01.03-.067c.011-.022.02-.041.03-.056.012-.02.027-.034.038-.047a.263.263 0 01.047-.038h.006c0 .003 0 .003.003 0-.003 0-.003 0 0 0z" fill="#303142"/><path d="M54.636 1.026l-.764.506a.339.339 0 01.03-.067c.012-.022.02-.041.031-.057.012-.018.026-.034.038-.046a.262.262 0 01.046-.039h.003l.004.001h.006l.76-.505h-.003-.004L54.78.817h-.003a.427.427 0 00-.141.209zM54.616 1.132l-.763.506.002-.03c.001-.01.002-.02.006-.026.001-.01.005-.019.006-.025 0-.01.005-.017.009-.026l.763-.506a.072.072 0 00-.006.026c0 .01-.005.016-.005.026-.001.01-.005.02-.006.026-.004.01-.005.02-.006.03z" fill="#303142"/><path d="M54.616 1.132l-.767.505.767-.505z" fill="#303142"/><path d="M54.616 1.132l-.763.506.002-.03c.001-.01.002-.02.006-.026.001-.01.005-.019.006-.025 0-.01.005-.017.009-.026l.763-.506a.072.072 0 00-.006.026c0 .01-.005.016-.005.026-.001.01-.005.02-.006.026-.004.01-.005.02-.006.03z" fill="#303142"/><path d="M53.935 2.29l-.776.504.014-.009c.003-.003.01-.005.014-.012.004-.002.01-.005.015-.011.003-.003.01-.006.014-.012a1.312 1.312 0 00.344-.366c.046-.068.086-.144.119-.22.033-.076.064-.16.088-.243.01-.026.015-.055.024-.08.006-.027.015-.052.02-.075a4.006 4.006 0 01.032-.132l.763-.506a.362.362 0 00-.012.062l-.016.07a.812.812 0 01-.02.078c-.006.026-.015.052-.025.08a1.636 1.636 0 01-.36.659c-.055.06-.12.118-.187.168-.004.003-.01.005-.015.012-.003.003-.01.005-.014.012-.004.003-.01.005-.014.011.003 0 0 .007-.008.01z" fill="#303142"/><path d="M53.935 2.29l-.776.504.014-.009c.003-.003.01-.005.014-.012.004-.002.01-.005.015-.011.003-.003.01-.006.014-.012a1.312 1.312 0 00.344-.366c.046-.068.086-.144.119-.22.033-.076.064-.16.088-.243.01-.026.015-.055.024-.08.006-.027.015-.052.02-.075a4.006 4.006 0 01.032-.132l.763-.506a.362.362 0 00-.012.062l-.016.07a.812.812 0 01-.02.078c-.006.026-.015.052-.025.08a1.636 1.636 0 01-.36.659c-.055.06-.12.118-.187.168-.004.003-.01.005-.015.012-.003.003-.01.005-.014.012-.004.003-.01.005-.014.011.003 0 0 .007-.008.01zM53.097.505L52.73.9l-2.086 1.495.615-.697L53.097.505zM52.075-.976l-.86.728-2.03 1.246.808-.746 2.082-1.228zM47.74-4.283c.236-.2.475-.396.711-.596-.275.23-.487.528-.638.88a3.469 3.469 0 00-.254 1.22c-.014.455.036.949.161 1.463.125.517.32 1.056.592 1.593l-.759.566a7.464 7.464 0 01-.576-1.58 5.47 5.47 0 01-.149-1.454c.021-.447.108-.86.263-1.215.154-.343.37-.644.648-.877z" fill="#303142"/><path d="M48.312.28l-.76.566a9.783 9.783 0 01-.25-.555 6.926 6.926 0 01-.343-1.092 5.422 5.422 0 01-.09-.524l.737-.587a6.415 6.415 0 00.246 1.073 8.029 8.029 0 00.46 1.12zM54.879 4.088l-.795.483c-.311.193-.668.299-1.054.33-.39.03-.808-.018-1.236-.143a5.32 5.32 0 01-1.323-.606 7.328 7.328 0 01-1.3-1.047l.78-.537c.417.421.86.779 1.307 1.064.444.282.894.492 1.331.624a3.5 3.5 0 001.239.156c.386-.028.74-.135 1.05-.324z" fill="#303142"/><path d="M54.879 4.087l-.794.483a2.268 2.268 0 01-.965.322c-.177.02-.36.024-.55.01a3.576 3.576 0 01-.58-.093l.796-.5c.198.049.393.083.58.097.187.013.372.014.55-.007a2.393 2.393 0 00.963-.312z" fill="#303142"/><path d="M52.79 4.31l-.796.5a4.713 4.713 0 01-.753-.254 5.403 5.403 0 01-.384-.184 7.251 7.251 0 01-.383-.22l.79-.516c.129.081.257.156.386.227.13.068.256.132.386.187a4.737 4.737 0 00.753.26z" fill="#303142"/><path d="M51.265 3.637l-.791.516a6.124 6.124 0 01-.333-.222 7.668 7.668 0 01-.967-.821l.78-.537c.106.105.212.207.319.306a7.585 7.585 0 00.655.536c.112.076.224.152.337.222zM49.383 1.938l-.773.544c-.042-.05-.08-.1-.122-.153-.038-.05-.076-.103-.115-.153-.038-.053-.076-.103-.114-.159-.038-.053-.076-.11-.114-.166-.014-.024-.032-.045-.046-.07-.014-.024-.032-.046-.047-.07-.014-.025-.032-.05-.046-.074l-.043-.073.765-.558.043.073a.955.955 0 00.046.074l.046.073c.018.025.032.05.05.07.038.057.079.114.117.17l.114.16c.038.052.077.102.118.155.038.057.08.107.121.157z" fill="#303142"/><path d="M49.383 1.938l-.773.544c-.042-.05-.08-.1-.122-.153-.038-.05-.076-.103-.115-.153-.038-.053-.076-.103-.114-.159-.038-.053-.076-.11-.114-.166-.014-.024-.032-.045-.046-.07-.014-.024-.032-.046-.047-.07-.014-.025-.032-.05-.046-.074l-.043-.073.765-.558.043.073a.955.955 0 00.046.074l.046.073c.018.025.032.05.05.07.038.057.079.114.117.17l.114.16c.038.052.077.102.118.155.038.057.08.107.121.157z" fill="#303142"/><path d="M48.728 1.009l-.765.558-.34.207.765-.558.34-.207zM49.954 2.568l-.779.538-.45.299.782-.537.447-.3zM47.134 1.095l.759-.568a.123.123 0 00-.046.062.237.237 0 00-.014.084.38.38 0 00.068.198l-.762.565a.579.579 0 01-.05-.1.346.346 0 01-.018-.098c0-.03.005-.059.014-.084.012-.022.03-.04.049-.059z" fill="#303142"/><path d="M47.9.871l-.761.565c-.009-.014-.018-.028-.023-.042-.008-.014-.014-.027-.02-.041a.2.2 0 01-.012-.04c-.002-.014-.007-.028-.006-.041l.762-.569c.002.014.004.027.01.041a.2.2 0 00.012.04c.006.015.011.028.02.042.002.017.01.031.019.045z" fill="#303142"/><path d="M47.836.706l-.762.569c0-.007-.002-.014-.001-.023l-.002-.024.002-.02.002-.019.76-.569-.003.02-.001.02c-.001.006-.002.013 0 .023.003.007.003.017.005.023z" fill="#303142"/><path d="M47.837.62l-.759.57c.001-.01.005-.02.01-.03l.012-.025.015-.022.018-.018.76-.568a.087.087 0 00-.019.018c-.007.006-.011.015-.015.021a.21.21 0 00-.012.026c-.005.01-.005.02-.01.029zM48.032 1.065l-.762.561-.131-.19L47.9.87l.13.194z" fill="#303142"/><path d="M48.389 1.216l-.765.558a.165.165 0 01-.085.022.198.198 0 01-.093-.021.418.418 0 01-.175-.148l.765-.565a.45.45 0 00.084.093c.03.026.062.046.094.058a.247.247 0 00.094.022.134.134 0 00.08-.019z" fill="#303142"/><path d="M48.389 1.216l-.765.558c-.01.006-.02.012-.031.014l-.034.007a.124.124 0 01-.036 0 .16.16 0 01-.04-.007l.766-.558c.012.004.026.005.039.007.013 0 .026.002.036 0l.034-.007a.064.064 0 00.03-.014z" fill="#303142"/><path d="M48.249 1.23l-.765.561c-.007 0-.016-.004-.023-.005-.006-.004-.016-.005-.022-.009l-.022-.012-.022-.012.765-.561.022.012.022.012a.061.061 0 00.022.008c.007.001.017.002.023.006zM48.16 1.189l-.766.562c-.012-.008-.021-.016-.034-.023-.013-.008-.021-.019-.034-.03a.295.295 0 01-.03-.032c-.009-.011-.017-.025-.03-.04l.766-.564a.336.336 0 00.03.039c.008.01.02.022.03.032.012.011.02.022.033.03a.22.22 0 00.034.026zM48.246 2.72l.774-.547a.129.129 0 00-.049.061.197.197 0 00-.014.088.368.368 0 00.07.205l-.776.544a.304.304 0 01-.05-.104.368.368 0 01-.018-.1c0-.034.006-.063.018-.088a.093.093 0 01.045-.059z" fill="#303142"/><path d="M49.023 2.526l-.777.544-.026-.042c-.009-.014-.014-.027-.02-.041a.2.2 0 01-.012-.04c-.002-.014-.008-.028-.01-.041l.777-.548c.002.014.004.027.01.04.005.015.007.028.013.042.005.013.01.027.019.041.008.017.017.031.026.045z" fill="#303142"/><path d="M48.958 2.362l-.777.547c-.002-.007-.001-.016 0-.023 0-.007-.003-.013-.002-.023l.002-.02.002-.02.777-.547-.002.02-.002.023c0 .006-.002.013 0 .023 0 .003 0 .013.002.02zM48.956 2.277l-.777.547c.001-.01.005-.02.01-.029l.012-.028c.004-.01.011-.016.019-.025.007-.006.014-.015.021-.018l.774-.547-.022.018c-.007.005-.011.015-.019.024l-.012.029c0 .006-.002.016-.006.029zM49.154 2.72l-.78.544-.128-.194.777-.544.13.194zM49.508 2.869l-.783.537a.141.141 0 01-.081.025.242.242 0 01-.094-.018.418.418 0 01-.175-.148l.78-.54a.45.45 0 00.083.093c.03.026.062.045.094.058.032.013.064.019.094.018a.211.211 0 00.082-.025z" fill="#303142"/><path d="M49.507 2.868l-.782.537c-.011.005-.021.01-.032.017-.01.002-.024.007-.033.006a.135.135 0 01-.037 0 .16.16 0 01-.039-.006l.783-.54c.013.004.026.005.039.006.013.001.023.002.036 0l.034-.007a.132.132 0 00.031-.013z" fill="#303142"/><path d="M49.366 2.885l-.782.54c-.007 0-.013-.005-.023-.006-.006-.003-.016-.004-.023-.008l-.021-.012-.023-.012.783-.54.022.012.022.012c.007.004.017.004.023.008.006.004.016.002.022.006z" fill="#303142"/><path d="M49.28 2.844l-.782.54-.034-.023c-.013-.008-.022-.018-.034-.03L48.4 3.3c-.009-.01-.017-.025-.03-.039l.78-.54a.336.336 0 00.03.039l.03.032c.012.011.02.022.033.03.016.008.025.019.038.023z" fill="#303142"/><path d="M48.907-5.168a2.457 2.457 0 01.977-.241c.166-.005.334.004.503.029a3.5 3.5 0 01.566.134l.039.014a.528.528 0 01.035.013l.035.013c.038.016.08.037.117.06l.118.077a1.427 1.427 0 01.23.21c.086.096.156.198.213.303.056.104.096.21.12.311a.804.804 0 01.02.283.405.405 0 01-.092.22c-.007.01-.015.015-.022.024-.008.01-.015.015-.018.022l-.022.018c-.007.006-.018.011-.025.017-.007.003-.014.009-.024.011l-.027.008a.408.408 0 01-.034.006l-.04.007-.023-.002a.286.286 0 01-.049-.008c-.02-.002-.039-.007-.055-.008-.016-.005-.033-.007-.042-.01a2.68 2.68 0 00-.394-.103 1.643 1.643 0 00-.697.03c-.108.029-.211.07-.312.123a1.267 1.267 0 00-.513.482c-.124.207-.203.45-.235.725-.032.278-.016.584.044.907.059.326.167.666.317 1.01l1.953-1.15a.112.112 0 01.074-.017.28.28 0 01.083.024.4.4 0 01.156.14l.129.187c.02.031.037.063.047.093.01.031.018.061.018.091.001.03-.005.056-.013.078a.152.152 0 01-.048.055L49.996.255l.038.057c.012.017.026.035.038.056.011.018.023.035.038.056l.038.057c.037.056.075.112.116.166.038.056.08.11.121.163a5.836 5.836 0 00.262.314L52.571-.11a.127.127 0 01.071-.02.208.208 0 01.084.024.251.251 0 01.08.057.345.345 0 01.073.082l.119.176c.02.032.037.063.05.097.011.031.018.065.019.091 0 .03-.005.056-.014.078a.11.11 0 01-.048.056l-1.752 1.168c.242.201.495.37.744.498.25.128.496.22.736.269.237.048.467.059.679.022.211-.037.407-.115.58-.242.07-.05.132-.106.187-.168.055-.06.108-.125.154-.194.046-.068.082-.144.119-.22.033-.077.064-.16.088-.243.009-.026.015-.055.024-.08l.02-.078.017-.072c.005-.022.01-.042.012-.061l.002-.03c.001-.01.002-.02.006-.026.001-.01.005-.019.006-.026 0-.01.005-.016.005-.025a.951.951 0 01.026-.068.25.25 0 01.032-.056c.012-.019.026-.034.037-.046.015-.016.03-.027.044-.04a.371.371 0 01.217-.062.64.64 0 01.258.066c.089.041.18.103.265.18.085.077.17.17.242.28.035.052.07.108.097.16.029.056.053.111.075.163.021.054.036.109.052.16.011.054.02.104.025.154a3.59 3.59 0 01-.08.627 2.56 2.56 0 01-.46 1.012 2.224 2.224 0 01-.367.377 2.215 2.215 0 01-1.06.455c-.399.063-.835.03-1.29-.087a5.171 5.171 0 01-1.408-.618 7.55 7.55 0 01-1.393-1.115l-.443.297a.14.14 0 01-.082.025.243.243 0 01-.094-.018.346.346 0 01-.094-.058.557.557 0 01-.084-.094l-.13-.193a.543.543 0 01-.054-.104.399.399 0 01-.017-.101c0-.033.005-.062.018-.088a.133.133 0 01.052-.061l.358-.232a5.317 5.317 0 01-.122-.153c-.038-.05-.08-.103-.118-.156l-.114-.16c-.038-.052-.076-.109-.117-.169-.018-.024-.032-.049-.05-.07-.017-.025-.032-.05-.046-.074l-.046-.073-.043-.074-.336.204a.164.164 0 01-.084.022.248.248 0 01-.094-.021.397.397 0 01-.178-.152l-.131-.194a.368.368 0 01-.07-.205c-.001-.033.005-.062.017-.084a.131.131 0 01.055-.058L48.3.283a7.42 7.42 0 01-.633-1.786 5.012 5.012 0 01-.092-1.605c.057-.484.199-.91.422-1.264a2.22 2.22 0 01.91-.796z" fill="#A9B2CA" stroke="#303142" stroke-width=".165" stroke-miterlimit="10"/></g></g><defs><filter id="filter0_f" x="5" y="48" width="15" height="15" filterUnits="userSpaceOnUse" color-interpolation-filters="sRGB"><feFlood flood-opacity="0" result="BackgroundImageFix"/><feBlend in="SourceGraphic" in2="BackgroundImageFix" result="shape"/><feGaussianBlur stdDeviation="2" result="effect1_foregroundBlur"/></filter><filter id="filter1_f" x="78" y="49" width="8" height="8" filterUnits="userSpaceOnUse" color-interpolation-filters="sRGB"><feFlood flood-opacity="0" result="BackgroundImageFix"/><feBlend in="SourceGraphic" in2="BackgroundImageFix" result="shape"/><feGaussianBlur stdDeviation="1" result="effect1_foregroundBlur"/></filter><filter id="filter2_f" x="206" y="61" width="8" height="8" filterUnits="userSpaceOnUse" color-interpolation-filters="sRGB"><feFlood flood-opacity="0" result="BackgroundImageFix"/><feBlend in="SourceGraphic" in2="BackgroundImageFix" result="shape"/><feGaussianBlur stdDeviation="1" result="effect1_foregroundBlur"/></filter><filter id="filter3_f" x="32" y="17" width="12" height="12" filterUnits="userSpaceOnUse" color-interpolation-filters="sRGB"><feFlood flood-opacity="0" result="BackgroundImageFix"/><feBlend in="SourceGraphic" in2="BackgroundImageFix" result="shape"/><feGaussianBlur stdDeviation="2" result="effect1_foregroundBlur"/></filter><filter id="filter4_f" x="32" y="76" width="12" height="12" filterUnits="userSpaceOnUse" color-interpolation-filters="sRGB"><feFlood flood-opacity="0" result="BackgroundImageFix"/><feBlend in="SourceGraphic" in2="BackgroundImageFix" result="shape"/><feGaussianBlur stdDeviation="2" result="effect1_foregroundBlur"/></filter><filter id="filter5_f" x="126" y="90" width="6" height="6" filterUnits="userSpaceOnUse" color-interpolation-filters="sRGB"><feFlood flood-opacity="0" result="BackgroundImageFix"/><feBlend in="SourceGraphic" in2="BackgroundImageFix" result="shape"/><feGaussianBlur stdDeviation="1" result="effect1_foregroundBlur"/></filter><filter id="filter6_f" x="0" y="23" width="6" height="6" filterUnits="userSpaceOnUse" color-interpolation-filters="sRGB"><feFlood flood-opacity="0" result="BackgroundImageFix"/><feBlend in="SourceGraphic" in2="BackgroundImageFix" result="shape"/><feGaussianBlur stdDeviation="1" result="effect1_foregroundBlur"/></filter><filter id="filter7_f" x="-5" y="80" width="6" height="6" filterUnits="userSpaceOnUse" color-interpolation-filters="sRGB"><feFlood flood-opacity="0" result="BackgroundImageFix"/><feBlend in="SourceGraphic" in2="BackgroundImageFix" result="shape"/><feGaussianBlur stdDeviation="1" result="effect1_foregroundBlur"/></filter><filter id="filter8_f" x="165" y="7" width="14" height="14" filterUnits="userSpaceOnUse" color-interpolation-filters="sRGB"><feFlood flood-opacity="0" result="BackgroundImageFix"/><feBlend in="SourceGraphic" in2="BackgroundImageFix" result="shape"/><feGaussianBlur stdDeviation="2" result="effect1_foregroundBlur"/></filter><filter id="filter9_f" x="-62.375" y="2.7" width="227.452" height="127.233" filterUnits="userSpaceOnUse" color-interpolation-filters="sRGB"><feFlood flood-opacity="0" result="BackgroundImageFix"/><feBlend in="SourceGraphic" in2="BackgroundImageFix" result="shape"/><feGaussianBlur stdDeviation=".15" result="effect1_foregroundBlur"/></filter><filter id="filter10_f" x="131.615" y="62.583" width="34.162" height="35.138" filterUnits="userSpaceOnUse" color-interpolation-filters="sRGB"><feFlood flood-opacity="0" result="BackgroundImageFix"/><feBlend in="SourceGraphic" in2="BackgroundImageFix" result="shape"/><feGaussianBlur stdDeviation=".5" result="effect1_foregroundBlur"/></filter><filter id="filter11_f" x="113" y="3" width="14.27" height="15.834" filterUnits="userSpaceOnUse" color-interpolation-filters="sRGB"><feFlood flood-opacity="0" result="BackgroundImageFix"/><feBlend in="SourceGraphic" in2="BackgroundImageFix" result="shape"/><feGaussianBlur stdDeviation=".5" result="effect1_foregroundBlur"/></filter><filter id="filter12_f" x="3" y="2" width="17.755" height="17.429" filterUnits="userSpaceOnUse" color-interpolation-filters="sRGB"><feFlood flood-opacity="0" result="BackgroundImageFix"/><feBlend in="SourceGraphic" in2="BackgroundImageFix" result="shape"/><feGaussianBlur stdDeviation=".5" result="effect1_foregroundBlur"/></filter><filter id="filter13_f" x="164.623" y="39.765" width="13.408" height="12.929" filterUnits="userSpaceOnUse" color-interpolation-filters="sRGB"><feFlood flood-opacity="0" result="BackgroundImageFix"/><feBlend in="SourceGraphic" in2="BackgroundImageFix" result="shape"/><feGaussianBlur stdDeviation=".25" result="effect1_foregroundBlur"/></filter><filter id="filter14_f" x="16.996" y="87.729" width="16.604" height="17.39" filterUnits="userSpaceOnUse" color-interpolation-filters="sRGB"><feFlood flood-opacity="0" result="BackgroundImageFix"/><feBlend in="SourceGraphic" in2="BackgroundImageFix" result="shape"/><feGaussianBlur stdDeviation=".25" result="effect1_foregroundBlur"/></filter><filter id="filter15_df" x="38.321" y="-12.346" width="24.632" height="26.258" filterUnits="userSpaceOnUse" color-interpolation-filters="sRGB"><feFlood flood-opacity="0" result="BackgroundImageFix"/><feColorMatrix in="SourceAlpha" values="0 0 0 0 0 0 0 0 0 0 0 0 0 0 0 0 0 0 127 0"/><feOffset/><feGaussianBlur stdDeviation="1.453"/><feColorMatrix values="0 0 0 0 0.013 0 0 0 0 0 0 0 0 0 0.1625 0 0 0 1 0"/><feBlend in2="BackgroundImageFix" result="effect1_dropShadow"/><feBlend in="SourceGraphic" in2="effect1_dropShadow" result="shape"/><feGaussianBlur stdDeviation=".25" result="effect2_foregroundBlur"/></filter><linearGradient id="paint0_linear" x1="67.743" y1="42.852" x2="34.907" y2="110.133" gradientUnits="userSpaceOnUse"><stop stop-color="#48A6EB"/><stop offset="1" stop-color="#48A6EB" stop-opacity="0"/></linearGradient><linearGradient id="paint1_linear" x1="72.249" y1="32.468" x2="54.583" y2="50.134" gradientUnits="userSpaceOnUse"><stop stop-color="#8894B4"/><stop offset="1" stop-color="#4C4D58"/></linearGradient><linearGradient id="paint2_linear" x1="33.007" y1="58.892" x2="42.4" y2="15.833" gradientUnits="userSpaceOnUse"><stop stop-color="#7885A8"/><stop offset="1" stop-color="#C1CAE0"/></linearGradient><linearGradient id="paint3_linear" x1="38.53" y1="23.008" x2="30.249" y2="52.82" gradientUnits="userSpaceOnUse"><stop stop-color="#A9B2CA"/><stop offset="1" stop-color="#7A86A7"/></linearGradient><linearGradient id="paint4_linear" x1="84.609" y1="50.11" x2="94.002" y2="7.05" gradientUnits="userSpaceOnUse"><stop stop-color="#7885A8"/><stop offset="1" stop-color="#C1CAE0"/></linearGradient><linearGradient id="paint5_linear" x1="90.132" y1="14.225" x2="81.85" y2="44.036" gradientUnits="userSpaceOnUse"><stop stop-color="#A9B2CA"/><stop offset="1" stop-color="#7A86A7"/></linearGradient><linearGradient id="paint6_linear" x1="65.945" y1="96.221" x2="75.338" y2="53.161" gradientUnits="userSpaceOnUse"><stop stop-color="#7885A8"/><stop offset="1" stop-color="#C1CAE0"/></linearGradient><linearGradient id="paint7_linear" x1="71.466" y1="60.336" x2="63.185" y2="90.148" gradientUnits="userSpaceOnUse"><stop stop-color="#A9B2CA"/><stop offset="1" stop-color="#7A86A7"/></linearGradient><linearGradient id="paint8_linear" x1="168.865" y1="44.047" x2="173.046" y2="41.626" gradientUnits="userSpaceOnUse"><stop stop-color="#A9B2CA" stop-opacity="0"/><stop offset="1" stop-color="#A9B2CA"/></linearGradient><linearGradient id="paint9_linear" x1="28.211" y1="93.223" x2="31.323" y2="98.764" gradientUnits="userSpaceOnUse"><stop stop-color="#A9B2CA" stop-opacity="0"/><stop offset="1" stop-color="#A9B2CA"/></linearGradient><linearGradient id="paint10_linear" x1="54.398" y1="-2.985" x2="57.906" y2="4.001" gradientUnits="userSpaceOnUse"><stop stop-color="#A9B2CA" stop-opacity="0"/><stop offset="1" stop-color="#A9B2CA"/></linearGradient><clipPath id="clip0"><path fill="#fff" d="M0 0h208v100H0z"/></clipPath><clipPath id="clip1"><path fill="#fff" transform="rotate(-35.541 184.824 -168.908)" d="M0 0h21.305v25.505H0z"/></clipPath><clipPath id="clip2"><path fill="#fff" transform="rotate(11.251 37.875 592.664)" d="M0 0h10.104v12.095H0z"/></clipPath><clipPath id="clip3"><path fill="#fff" transform="rotate(-51.649 13.286 1.33)" d="M0 0h10.104v12.095H0z"/></clipPath><clipPath id="clip4"><path fill="#fff" transform="translate(13.685 14.175)" d="M0 0h40.255v42.824H0z"/></clipPath><clipPath id="clip5"><path fill="#fff" transform="translate(65.287 5.392)" d="M0 0h40.255v42.824H0z"/></clipPath><clipPath id="clip6"><path fill="#fff" transform="translate(46.622 51.504)" d="M0 0h40.255v42.824H0z"/></clipPath></defs></svg>
