<svg width="24" height="24" viewBox="0 0 24 24" fill="none" xmlns="http://www.w3.org/2000/svg">
  <path d="M12 24C5.38125 24 0 18.6187 0 12C0 5.38125 5.38125 0 12 0C18.6187 0 24 5.38125 24 12C24 18.6187 18.6187 24 12 24Z" fill="#2F9ADD" fill-opacity="0.2"/>
  <path fill-rule="evenodd" clip-rule="evenodd" d="M12.5404 4.2C10.9827 4.2 9.53386 4.663 8.32005 5.46008C8.04307 5.64198 7.67107 5.56488 7.48918 5.2879C7.30729 5.01091 7.38438 4.63891 7.66137 4.45702C9.06442 3.53567 10.741 3 12.5404 3C14.779 3 16.8264 3.82899 18.3941 5.19703C18.6438 5.4149 18.6696 5.79392 18.4517 6.0436C18.2338 6.29327 17.8548 6.31906 17.6051 6.10118C16.2469 4.91596 14.4771 4.2 12.5404 4.2ZM6.55725 6.1168C6.81092 6.33 6.84373 6.70848 6.63053 6.96215C5.48832 8.32118 4.79961 10.0785 4.79961 12C4.79961 13.962 5.51771 15.753 6.70354 17.1235C6.92036 17.374 6.89299 17.753 6.64241 17.9698C6.39182 18.1866 6.01291 18.1592 5.79609 17.9087C4.42812 16.3277 3.59961 14.2603 3.59961 12C3.59961 9.78656 4.39417 7.75792 5.71189 6.19008C5.92509 5.9364 6.30357 5.90359 6.55725 6.1168ZM18.4517 17.9564C18.6696 18.2061 18.6438 18.5851 18.3941 18.803C16.8264 20.171 14.779 21 12.5404 21C10.741 21 9.06442 20.4643 7.66137 19.543C7.38438 19.3611 7.30729 18.9891 7.48918 18.7121C7.67107 18.4351 8.04307 18.358 8.32005 18.5399C9.53386 19.337 10.9827 19.8 12.5404 19.8C14.4771 19.8 16.2469 19.084 17.6051 17.8988C17.8548 17.6809 18.2338 17.7067 18.4517 17.9564ZM12.5996 6.6C9.61727 6.6 7.19961 9.01766 7.19961 12C7.19961 14.9823 9.61727 17.4 12.5996 17.4C15.5819 17.4 17.9996 14.9823 17.9996 12C17.9996 9.01766 15.5819 6.6 12.5996 6.6ZM5.99961 12C5.99961 8.35492 8.95453 5.4 12.5996 5.4C16.2447 5.4 19.1996 8.35492 19.1996 12C19.1996 15.6451 16.2447 18.6 12.5996 18.6C8.95453 18.6 5.99961 15.6451 5.99961 12ZM10.7996 14.4L10.7996 12.2182C10.7996 11.8868 10.531 11.6182 10.1996 11.6182C9.86824 11.6182 9.59961 11.8868 9.59961 12.2182L9.59961 14.4C9.59961 14.7314 9.86824 15 10.1996 15C10.531 15 10.7996 14.7314 10.7996 14.4ZM12.5996 14.4V10.9091C12.5996 10.5777 12.331 10.3091 11.9996 10.3091C11.6682 10.3091 11.3996 10.5777 11.3996 10.9091L11.3996 14.4C11.3996 14.7314 11.6682 15 11.9996 15C12.331 15 12.5996 14.7314 12.5996 14.4ZM13.1996 14.4C13.1996 14.7314 13.4682 15 13.7996 15C14.131 15 14.3996 14.7314 14.3996 14.4V9.6C14.3996 9.26863 14.131 9 13.7996 9C13.4682 9 13.1996 9.26863 13.1996 9.6V14.4Z" fill="#2F9ADD"/>
</svg>
