<svg width="36" height="20" viewBox="0 0 36 20"  fill="#fff" xmlns="http://www.w3.org/2000/svg">
<path d="M19.6084 1.66997e-08C20.3956 4.73341e-08 21.1375 0.372428 21.6136 1.0066L35.8727 20H35.4517C34.6648 20 33.9231 19.6278 33.447 18.994L19.1793 0L19.6084 1.66997e-08Z"/>
<path d="M35.5709 0.00831962C34.7838 -0.00198993 34.0372 0.36069 33.553 0.98857L19.052 19.7936L19.473 19.7991C20.2599 19.8095 21.0062 19.447 21.4904 18.8194L36 0.0139396L35.5709 0.00831962Z"/>
<path d="M0 8.32051C0 8.08606 0.187883 7.896 0.419648 7.896H3.6929C3.92467 7.896 4.11255 8.08606 4.11255 8.32051V11.6317C4.11255 11.8662 3.92467 12.0562 3.6929 12.0562H0.419648C0.187883 12.0562 0 11.8662 0 11.6317V8.32051Z"/>
<path d="M8.72868 12.0562H4.5322C4.30043 12.0562 4.11255 12.2462 4.11255 12.4807V19.5276C4.11255 19.7621 4.30043 19.9521 4.5322 19.9521H8.30903C8.54079 19.9521 8.72868 19.7621 8.72868 19.5276V16.4287C8.72868 16.1942 8.91656 16.0041 9.14832 16.0041H12.0439C15.4611 16.0041 17.5423 13.7598 18.3595 12.6554C18.5516 12.3959 18.3633 12.0562 18.0428 12.0562H8.72868Z"/>
<path d="M4.11255 0.424516C4.11255 0.190062 4.30043 0 4.5322 0H8.72868C8.72868 0 8.72868 0 8.72868 0C8.72868 0 9.69387 0 13.5546 0C17.2471 0 19.6344 4.11612 19.9457 7.37178C19.9686 7.61152 19.7772 7.81109 19.5391 7.81109H15.7653C15.5389 7.81109 15.3512 7.63091 15.323 7.40362C15.1992 6.40294 14.6615 3.90554 12.3796 3.90554H9.14832C8.91656 3.90554 8.72868 4.09561 8.72868 4.33006V7.47147C8.72868 7.70593 8.54079 7.89599 8.30903 7.89599H4.5322C4.30043 7.89599 4.11255 7.70593 4.11255 7.47147V0.424516Z"/>
</svg>
